<?xml version="1.0" encoding="UTF-8" standalone="no"?>
<!-- Generator: Adobe Illustrator 25.0.0, SVG Export Plug-In . SVG Version: 6.00 Build 0)  -->

<svg
   version="1.1"
   id="PRINT"
   x="0px"
   y="0px"
   viewBox="0 0 1042 798"
   xml:space="preserve"
   sodipodi:docname="certificado_2.svg"
   inkscape:version="1.2.1 (9c6d41e410, 2022-07-14)"
   width="1042"
   height="798"
   xmlns:inkscape="http://www.inkscape.org/namespaces/inkscape"
   xmlns:sodipodi="http://sodipodi.sourceforge.net/DTD/sodipodi-0.dtd"
   xmlns:xlink="http://www.w3.org/1999/xlink"
   xmlns="http://www.w3.org/2000/svg"
   xmlns:svg="http://www.w3.org/2000/svg">
   <defs
   id="defs287">
     
     
     
   
       
     
       
       
     </defs>
   <sodipodi:namedview
   id="namedview285"
   pagecolor="#ffffff"
   bordercolor="#999999"
   borderopacity="1"
   inkscape:showpageshadow="0"
   inkscape:pageopacity="0"
   inkscape:pagecheckerboard="0"
   inkscape:deskcolor="#d1d1d1"
   showgrid="false"
   inkscape:zoom="1.0159314"
   inkscape:cx="386.83715"
   inkscape:cy="550.23402"
   inkscape:window-width="1920"
   inkscape:window-height="1009"
   inkscape:window-x="-8"
   inkscape:window-y="-8"
   inkscape:window-maximized="1"
   inkscape:current-layer="g2247" />
   <style
   type="text/css"
   id="style2">
     .st0 {
       clip-path: url(#SVGID_2_);
     }
     .st1 {
       fill: #ffffff;
     }
     .st2 {
       fill: none;
       stroke: #b8bbc2;
       stroke-width: 0.6891;
       stroke-miterlimit: 10;
     }
     .st3 {
       fill: #dedfe8;
     }
     .st4 {
       fill: #0066ff;
     }
     .st5 {
       fill: none;
       stroke: #0066ff;
       stroke-width: 1.3782;
       stroke-miterlimit: 10;
     }
     .st6 {
       opacity: 0.6;
     }
     .st7 {
       fill: url(#SVGID_3_);
     }
     .st8 {
       fill: none;
     }
     .st9 {
       font-family: 'FiraSans-Medium';
     }
     .st10 {
       font-size: 40px;
     }
     .st11 {
       fill: #3b3b47;
     }
     .st12 {
       font-family: 'SairaExtraCondensed-SemiBold';
     }
     .st13 {
       font-size: 50px;
     }
     .st14 {
       font-family: 'FiraSans-Regular';
     }
     .st15 {
       font-size: 16px;
     }
     .st16 {
       font-family: 'FiraSans-SemiBold';
     }
     .st17 {
       font-size: 25.9109px;
     }
     .st18 {
       font-size: 18.6602px;
     }
     .st19 {
       stroke: #1d1d1b;
       stroke-width: 0.6664;
       stroke-linecap: square;
       stroke-miterlimit: 10;
     }
   </style>
   <g
   id="g214"
   transform="scale(0.98679651,0.9781228)">
     <g
   id="g197">
       <defs
   id="defs5">
         <rect
   id="SVGID_1_"
   x="0"
   y="0"
   width="1056"
   height="816" />
       </defs>
       <clipPath
   id="SVGID_2_">
         <use
   xlink:href="#SVGID_1_"
   style="overflow:visible"
   id="use7" />
       </clipPath>
       <g
   class="st0"
   clip-path="url(#SVGID_2_)"
   id="g195">
         <rect
   x="0"
   y="0"
   class="st1"
   width="1056"
   height="816"
   id="rect10" />
         <g
   id="g191">
           <polygon
   points="1020.12,897.43 800.88,678.19 581.64,897.43 "
   id="polygon12" />
           <g
   id="g28">
             <polyline
   class="st2"
   points="459.22,-81.43 220.15,157.64 -18.92,-81.43      "
   id="polyline14" />
             <polyline
   class="st2"
   points="446.61,-81.43 220.15,145.02 -6.3,-81.43      "
   id="polyline16" />
             <polyline
   class="st2"
   points="433.99,-81.43 220.15,132.41 6.31,-81.43      "
   id="polyline18" />
             <polyline
   class="st2"
   points="421.38,-81.43 220.15,119.8 18.93,-81.43      "
   id="polyline20" />
             <polyline
   class="st2"
   points="408.77,-81.43 220.15,107.18 31.54,-81.43      "
   id="polyline22" />
             <polyline
   class="st2"
   points="396.15,-81.43 220.15,94.57 44.15,-81.43      "
   id="polyline24" />
             <polyline
   class="st2"
   points="383.54,-81.43 220.15,81.96 56.77,-81.43      "
   id="polyline26" />
           </g>
           <polygon
   class="st3"
   points="1113.84,-28.55 796.52,-28.55 1113.84,288.77 "
   id="polygon30" />

           <rect
   x="744.15997"
   y="283.10999"
   transform="matrix(0.7071,-0.7071,0.7071,0.7071,-6.5357,667.7535)"
   class="st4"
   width="117.32"
   height="117.32"
   id="rect32" />

           <rect
   x="655.45001"
   y="279.69"
   transform="matrix(0.7071,-0.7071,0.7071,0.7071,-17.0991,572.6618)"
   width="54.57"
   height="54.57"
   id="rect34" />
           <g
   id="g68">
             <path
   d="m 750.92,343.66 c 0,1.05 -0.85,1.89 -1.9,1.89 -1.05,0 -1.89,-0.84 -1.89,-1.89 0,-1.05 0.84,-1.89 1.89,-1.89 1.05,0 1.9,0.85 1.9,1.89 z"
   id="path36" />
             <path
   d="m 768.84,343.66 c 0,1.05 -0.85,1.89 -1.9,1.89 -1.04,0 -1.89,-0.84 -1.89,-1.89 0,-1.05 0.85,-1.89 1.89,-1.89 1.05,0 1.9,0.85 1.9,1.89 z"
   id="path38" />
             <path
   d="m 786.75,343.66 c 0,1.05 -0.85,1.89 -1.89,1.89 -1.05,0 -1.9,-0.84 -1.9,-1.89 0,-1.05 0.85,-1.89 1.9,-1.89 1.04,0 1.89,0.85 1.89,1.89 z"
   id="path40" />
             <path
   d="m 804.67,343.66 c 0,1.05 -0.84,1.89 -1.89,1.89 -1.05,0 -1.89,-0.84 -1.89,-1.89 0,-1.05 0.84,-1.89 1.89,-1.89 1.04,0 1.89,0.85 1.89,1.89 z"
   id="path42" />
             <path
   d="m 750.92,361.58 c 0,1.05 -0.85,1.9 -1.9,1.9 -1.05,0 -1.89,-0.85 -1.89,-1.9 0,-1.05 0.84,-1.89 1.89,-1.89 1.05,-0.01 1.9,0.84 1.9,1.89 z"
   id="path44" />
             <path
   d="m 768.84,361.58 c 0,1.05 -0.85,1.9 -1.9,1.9 -1.04,0 -1.89,-0.85 -1.89,-1.9 0,-1.05 0.85,-1.89 1.89,-1.89 1.05,-0.01 1.9,0.84 1.9,1.89 z"
   id="path46" />
             <path
   d="m 786.75,361.58 c 0,1.05 -0.85,1.9 -1.89,1.9 -1.05,0 -1.9,-0.85 -1.9,-1.9 0,-1.05 0.85,-1.89 1.9,-1.89 1.04,-0.01 1.89,0.84 1.89,1.89 z"
   id="path48" />
             <path
   d="m 804.67,361.58 c 0,1.05 -0.84,1.9 -1.89,1.9 -1.05,0 -1.89,-0.85 -1.89,-1.9 0,-1.05 0.84,-1.89 1.89,-1.89 1.04,-0.01 1.89,0.84 1.89,1.89 z"
   id="path50" />
             <path
   d="m 750.92,379.5 c 0,1.05 -0.85,1.9 -1.9,1.9 -1.05,0 -1.89,-0.85 -1.89,-1.9 0,-1.05 0.84,-1.9 1.89,-1.9 1.05,0 1.9,0.85 1.9,1.9 z"
   id="path52" />
             <path
   d="m 768.84,379.5 c 0,1.05 -0.85,1.9 -1.9,1.9 -1.04,0 -1.89,-0.85 -1.89,-1.9 0,-1.05 0.85,-1.9 1.89,-1.9 1.05,0 1.9,0.85 1.9,1.9 z"
   id="path54" />
             <path
   d="m 786.75,379.5 c 0,1.05 -0.85,1.9 -1.89,1.9 -1.05,0 -1.9,-0.85 -1.9,-1.9 0,-1.05 0.85,-1.9 1.9,-1.9 1.04,0 1.89,0.85 1.89,1.9 z"
   id="path56" />
             <path
   d="m 804.67,379.5 c 0,1.05 -0.84,1.9 -1.89,1.9 -1.05,0 -1.89,-0.85 -1.89,-1.9 0,-1.05 0.84,-1.9 1.89,-1.9 1.04,0 1.89,0.85 1.89,1.9 z"
   id="path58" />
             <path
   d="m 750.92,397.41 c 0,1.05 -0.85,1.89 -1.9,1.89 -1.05,0 -1.89,-0.85 -1.89,-1.89 0,-1.05 0.84,-1.89 1.89,-1.89 1.05,0 1.9,0.84 1.9,1.89 z"
   id="path60" />
             <path
   d="m 768.84,397.41 c 0,1.05 -0.85,1.89 -1.9,1.89 -1.04,0 -1.89,-0.85 -1.89,-1.89 0,-1.05 0.85,-1.89 1.89,-1.89 1.05,0 1.9,0.84 1.9,1.89 z"
   id="path62" />
             <path
   d="m 786.75,397.41 c 0,1.05 -0.85,1.89 -1.89,1.89 -1.05,0 -1.9,-0.85 -1.9,-1.89 0,-1.05 0.85,-1.89 1.9,-1.89 1.04,0 1.89,0.84 1.89,1.89 z"
   id="path64" />
             <path
   d="m 804.67,397.41 c 0,1.05 -0.84,1.89 -1.89,1.89 -1.05,0 -1.89,-0.85 -1.89,-1.89 0,-1.05 0.84,-1.89 1.89,-1.89 1.04,0 1.89,0.84 1.89,1.89 z"
   id="path66" />
           </g>
           <g
   id="g80">
             <line
   class="st5"
   x1="1093.72"
   y1="408.75"
   x2="653.98999"
   y2="848.47998"
   id="line70" />
             <line
   class="st5"
   x1="1093.72"
   y1="432.57999"
   x2="677.82001"
   y2="848.47998"
   id="line72" />
             <line
   class="st5"
   x1="1093.72"
   y1="456.42001"
   x2="701.65997"
   y2="848.47998"
   id="line74" />
             <line
   class="st5"
   x1="1093.72"
   y1="480.25"
   x2="725.48999"
   y2="848.47998"
   id="line76" />
             <line
   class="st5"
   x1="1093.72"
   y1="504.09"
   x2="749.33002"
   y2="848.47998"
   id="line78" />
           </g>
           <g
   class="st6"
   id="g92">
             <line
   class="st2"
   x1="1093.72"
   y1="315.44"
   x2="771.63"
   y2="-6.6399999"
   id="line82" />
             <line
   class="st2"
   x1="1093.72"
   y1="330.14999"
   x2="756.92999"
   y2="-6.6399999"
   id="line84" />
             <line
   class="st2"
   x1="1093.72"
   y1="344.85001"
   x2="742.22998"
   y2="-6.6399999"
   id="line86" />
             <line
   class="st2"
   x1="1093.72"
   y1="359.56"
   x2="727.52002"
   y2="-6.6399999"
   id="line88" />
             <line
   class="st2"
   x1="1093.72"
   y1="374.26999"
   x2="712.81"
   y2="-6.6399999"
   id="line90" />
           </g>
           <linearGradient
   id="SVGID_3_"
   gradientUnits="userSpaceOnUse"
   x1="975.1944"
   y1="167.8033"
   x2="1152.6329"
   y2="345.24191">
             <stop
   offset="0"
   style="stop-color:#0066FF"
   id="stop94" />
             <stop
   offset="0.4242"
   style="stop-color:#275FAF"
   id="stop96" />
             <stop
   offset="0.8131"
   style="stop-color:#0B64E9"
   id="stop98" />
             <stop
   offset="1"
   style="stop-color:#0066FF"
   id="stop100" />
           </linearGradient>
           <polygon
   class="st7"
   points="1007.44,-28.55 899.52,-28.55 724.88,146.09 1113.66,534.86 1113.66,426.94 832.81,146.09 "
   id="polygon103"
   style="fill:url(#SVGID_3_)" />
           <polygon
   points="904.45,469.97 1113.66,260.76 1113.66,152.84 796.52,469.97 1113.66,787.11 1113.66,679.18 "
   id="polygon105" />
           <polygon
   class="st4"
   points="1020.12,897.43 1128.05,897.43 800.88,570.26 473.71,897.43 581.64,897.43 800.88,678.19 "
   id="polygon107" />
           <polygon
   points="173.98,-28.55 -72.05,217.48 -72.05,325.41 281.9,-28.55 "
   id="polygon109" />
           <g
   id="g143">
             <path
   class="st4"
   d="m 174.43,99.1 c -0.74,-0.74 -0.74,-1.94 0,-2.68 0.74,-0.74 1.94,-0.74 2.68,0 0.74,0.74 0.74,1.94 0,2.68 -0.74,0.74 -1.94,0.74 -2.68,0 z"
   id="path111" />
             <path
   class="st4"
   d="m 161.76,111.77 c -0.74,-0.74 -0.74,-1.94 0,-2.68 0.74,-0.74 1.94,-0.74 2.68,0 0.74,0.73 0.74,1.94 0,2.68 -0.74,0.74 -1.94,0.74 -2.68,0 z"
   id="path113" />
             <path
   class="st4"
   d="m 149.09,124.44 c -0.74,-0.74 -0.74,-1.94 0,-2.68 0.74,-0.74 1.94,-0.74 2.68,0 0.74,0.74 0.74,1.94 0,2.68 -0.74,0.74 -1.94,0.74 -2.68,0 z"
   id="path115" />
             <path
   class="st4"
   d="m 136.42,137.11 c -0.74,-0.74 -0.74,-1.94 0,-2.68 0.74,-0.74 1.94,-0.74 2.68,0 0.74,0.74 0.74,1.94 0,2.68 -0.74,0.73 -1.94,0.73 -2.68,0 z"
   id="path117" />
             <path
   class="st4"
   d="m 161.76,86.43 c -0.74,-0.74 -0.74,-1.94 0,-2.68 0.74,-0.74 1.94,-0.74 2.68,0 0.74,0.74 0.74,1.94 0,2.68 -0.74,0.74 -1.94,0.74 -2.68,0 z"
   id="path119" />
             <path
   class="st4"
   d="m 149.09,99.1 c -0.74,-0.74 -0.74,-1.94 0,-2.68 0.74,-0.74 1.94,-0.74 2.68,0 0.74,0.74 0.74,1.94 0,2.68 -0.74,0.74 -1.94,0.74 -2.68,0 z"
   id="path121" />
             <path
   class="st4"
   d="m 136.42,111.77 c -0.74,-0.74 -0.74,-1.94 0,-2.68 0.74,-0.74 1.94,-0.74 2.68,0 0.74,0.73 0.74,1.94 0,2.68 -0.74,0.74 -1.94,0.74 -2.68,0 z"
   id="path123" />
             <path
   class="st4"
   d="m 123.75,124.44 c -0.74,-0.74 -0.74,-1.94 0,-2.68 0.74,-0.74 1.94,-0.74 2.68,0 0.74,0.74 0.74,1.94 0,2.68 -0.74,0.74 -1.94,0.74 -2.68,0 z"
   id="path125" />
             <path
   class="st4"
   d="m 149.09,73.76 c -0.74,-0.74 -0.74,-1.94 0,-2.68 0.74,-0.74 1.94,-0.74 2.68,0 0.74,0.74 0.74,1.94 0,2.68 -0.74,0.74 -1.94,0.74 -2.68,0 z"
   id="path127" />
             <path
   class="st4"
   d="m 136.42,86.43 c -0.74,-0.74 -0.74,-1.94 0,-2.68 0.74,-0.74 1.94,-0.74 2.68,0 0.74,0.74 0.74,1.94 0,2.68 -0.74,0.74 -1.94,0.74 -2.68,0 z"
   id="path129" />
             <path
   class="st4"
   d="m 123.75,99.1 c -0.74,-0.74 -0.74,-1.94 0,-2.68 0.74,-0.74 1.94,-0.74 2.68,0 0.74,0.74 0.74,1.94 0,2.68 -0.74,0.74 -1.94,0.74 -2.68,0 z"
   id="path131" />
             <path
   class="st4"
   d="m 111.08,111.77 c -0.74,-0.74 -0.74,-1.94 0,-2.68 0.74,-0.74 1.94,-0.74 2.68,0 0.74,0.73 0.74,1.94 0,2.68 -0.74,0.74 -1.94,0.74 -2.68,0 z"
   id="path133" />
             <path
   class="st4"
   d="m 136.42,61.09 c -0.74,-0.74 -0.74,-1.94 0,-2.68 0.74,-0.74 1.94,-0.74 2.68,0 0.74,0.74 0.74,1.94 0,2.68 -0.74,0.74 -1.94,0.74 -2.68,0 z"
   id="path135" />
             <path
   class="st4"
   d="m 123.75,73.76 c -0.74,-0.74 -0.74,-1.94 0,-2.68 0.74,-0.74 1.94,-0.74 2.68,0 0.74,0.74 0.74,1.94 0,2.68 -0.74,0.74 -1.94,0.74 -2.68,0 z"
   id="path137" />
             <path
   class="st4"
   d="m 111.08,86.43 c -0.74,-0.74 -0.74,-1.94 0,-2.68 0.74,-0.74 1.94,-0.74 2.68,0 0.74,0.74 0.74,1.94 0,2.68 -0.74,0.74 -1.94,0.74 -2.68,0 z"
   id="path139" />
             <path
   class="st4"
   d="m 98.41,99.1 c -0.74,-0.74 -0.74,-1.94 0,-2.68 0.74,-0.74 1.94,-0.74 2.68,0 0.74,0.74 0.74,1.94 0,2.68 -0.74,0.74 -1.94,0.74 -2.68,0 z"
   id="path141" />
           </g>
           <polygon
   class="st4"
   points="-8.09,209 -72.05,145.04 -8.09,81.08 55.87,145.04 "
   id="polygon145" />
           <g
   id="g189">
             <path
   d="m 576.24,696.12 c 0,1.05 -0.85,1.9 -1.89,1.9 -1.04,0 -1.89,-0.85 -1.89,-1.9 0,-1.05 0.85,-1.89 1.89,-1.89 1.04,-0.01 1.89,0.84 1.89,1.89 z"
   id="path147" />
             <path
   d="m 594.16,696.12 c 0,1.05 -0.85,1.9 -1.9,1.9 -1.05,0 -1.9,-0.85 -1.9,-1.9 0,-1.05 0.85,-1.89 1.9,-1.89 1.05,-0.01 1.9,0.84 1.9,1.89 z"
   id="path149" />
             <path
   d="m 612.07,696.12 c 0,1.05 -0.85,1.9 -1.89,1.9 -1.05,0 -1.9,-0.85 -1.9,-1.9 0,-1.05 0.85,-1.89 1.9,-1.89 1.05,-0.01 1.89,0.84 1.89,1.89 z"
   id="path151" />
             <path
   d="m 629.99,696.12 c 0,1.05 -0.85,1.9 -1.9,1.9 -1.04,0 -1.89,-0.85 -1.89,-1.9 0,-1.05 0.85,-1.89 1.89,-1.89 1.05,-0.01 1.9,0.84 1.9,1.89 z"
   id="path153" />
             <path
   d="m 647.9,696.12 c 0,1.05 -0.85,1.9 -1.89,1.9 -1.05,0 -1.9,-0.85 -1.9,-1.9 0,-1.05 0.85,-1.89 1.9,-1.89 1.05,-0.01 1.89,0.84 1.89,1.89 z"
   id="path155" />
             <path
   d="m 665.83,696.12 c 0,1.05 -0.85,1.9 -1.9,1.9 -1.05,0 -1.9,-0.85 -1.9,-1.9 0,-1.05 0.85,-1.89 1.9,-1.89 1.05,-0.01 1.9,0.84 1.9,1.89 z"
   id="path157" />
             <path
   d="m 683.74,696.12 c 0,1.05 -0.85,1.9 -1.89,1.9 -1.05,0 -1.9,-0.85 -1.9,-1.9 0,-1.05 0.85,-1.89 1.9,-1.89 1.04,-0.01 1.89,0.84 1.89,1.89 z"
   id="path159" />
             <path
   d="m 576.24,714.04 c 0,1.05 -0.85,1.9 -1.89,1.9 -1.04,0 -1.89,-0.85 -1.89,-1.9 0,-1.05 0.85,-1.9 1.89,-1.9 1.04,0 1.89,0.85 1.89,1.9 z"
   id="path161" />
             <path
   d="m 594.16,714.04 c 0,1.05 -0.85,1.9 -1.9,1.9 -1.05,0 -1.9,-0.85 -1.9,-1.9 0,-1.05 0.85,-1.9 1.9,-1.9 1.05,0 1.9,0.85 1.9,1.9 z"
   id="path163" />
             <path
   d="m 612.07,714.04 c 0,1.05 -0.85,1.9 -1.89,1.9 -1.05,0 -1.9,-0.85 -1.9,-1.9 0,-1.05 0.85,-1.9 1.9,-1.9 1.05,0 1.89,0.85 1.89,1.9 z"
   id="path165" />
             <path
   d="m 629.99,714.04 c 0,1.05 -0.85,1.9 -1.9,1.9 -1.04,0 -1.89,-0.85 -1.89,-1.9 0,-1.05 0.85,-1.9 1.89,-1.9 1.05,0 1.9,0.85 1.9,1.9 z"
   id="path167" />
             <path
   d="m 647.9,714.04 c 0,1.05 -0.85,1.9 -1.89,1.9 -1.05,0 -1.9,-0.85 -1.9,-1.9 0,-1.05 0.85,-1.9 1.9,-1.9 1.05,0 1.89,0.85 1.89,1.9 z"
   id="path169" />
             <path
   d="m 665.83,714.04 c 0,1.05 -0.85,1.9 -1.9,1.9 -1.05,0 -1.9,-0.85 -1.9,-1.9 0,-1.05 0.85,-1.9 1.9,-1.9 1.05,0 1.9,0.85 1.9,1.9 z"
   id="path171" />
             <path
   d="m 683.74,714.04 c 0,1.05 -0.85,1.9 -1.89,1.9 -1.05,0 -1.9,-0.85 -1.9,-1.9 0,-1.05 0.85,-1.9 1.9,-1.9 1.04,0 1.89,0.85 1.89,1.9 z"
   id="path173" />
             <path
   d="m 576.24,731.95 c 0,1.05 -0.85,1.9 -1.89,1.9 -1.04,0 -1.89,-0.85 -1.89,-1.9 0,-1.05 0.85,-1.89 1.89,-1.89 1.04,0 1.89,0.84 1.89,1.89 z"
   id="path175" />
             <path
   d="m 594.16,731.95 c 0,1.05 -0.85,1.9 -1.9,1.9 -1.05,0 -1.9,-0.85 -1.9,-1.9 0,-1.05 0.85,-1.89 1.9,-1.89 1.05,0 1.9,0.84 1.9,1.89 z"
   id="path177" />
             <path
   d="m 612.07,731.95 c 0,1.05 -0.85,1.9 -1.89,1.9 -1.05,0 -1.9,-0.85 -1.9,-1.9 0,-1.05 0.85,-1.89 1.9,-1.89 1.05,0 1.89,0.84 1.89,1.89 z"
   id="path179" />
             <path
   d="m 629.99,731.95 c 0,1.05 -0.85,1.9 -1.9,1.9 -1.04,0 -1.89,-0.85 -1.89,-1.9 0,-1.05 0.85,-1.89 1.89,-1.89 1.05,0 1.9,0.84 1.9,1.89 z"
   id="path181" />
             <path
   d="m 647.9,731.95 c 0,1.05 -0.85,1.9 -1.89,1.9 -1.05,0 -1.9,-0.85 -1.9,-1.9 0,-1.05 0.85,-1.89 1.9,-1.89 1.05,0 1.89,0.84 1.89,1.89 z"
   id="path183" />
             <path
   d="m 665.83,731.95 c 0,1.05 -0.85,1.9 -1.9,1.9 -1.05,0 -1.9,-0.85 -1.9,-1.9 0,-1.05 0.85,-1.89 1.9,-1.89 1.05,0 1.9,0.84 1.9,1.89 z"
   id="path185" />
             <path
   d="m 683.74,731.95 c 0,1.05 -0.85,1.9 -1.89,1.9 -1.05,0 -1.9,-0.85 -1.9,-1.9 0,-1.05 0.85,-1.89 1.9,-1.89 1.04,0 1.89,0.84 1.89,1.89 z"
   id="path187" />
           </g>
         </g>
         <rect
   x="-15.75"
   y="27.75"
   class="st8"
   width="1073.11"
   height="769"
   id="rect193" />
       </g>
     </g>
     <g
   id="g212">
       <g
   id="g210">
         <path
   d="m 463.36,47.42 c -0.07,0.14 -0.52,1.11 -1.37,2.9 -0.85,1.79 -1.97,4.17 -3.36,7.12 -1.39,2.95 -2.99,6.33 -4.78,10.12 -1.79,3.8 -3.65,7.73 -5.57,11.81 -1.92,4.08 -3.85,8.16 -5.77,12.23 -1.92,4.08 -3.7,7.84 -5.33,11.28 -1.63,3.45 -3.06,6.49 -4.31,9.12 -1.24,2.64 -2.13,4.52 -2.66,5.64 -0.2,0.42 -1,0.74 -2.4,0.95 -1.4,0.21 -2.86,0.32 -4.37,0.32 -1.51,0 -2.87,-0.1 -4.07,-0.32 -1.2,-0.21 -1.7,-0.53 -1.5,-0.95 0.4,-0.84 1,-2.11 1.79,-3.8 0.8,-1.69 1.73,-3.67 2.81,-5.96 1.08,-2.28 2.25,-4.8 3.51,-7.54 1.26,-2.74 2.58,-5.59 3.98,-8.54 -1.27,0 -2.81,0 -4.64,0 -1.83,0 -3.7,-0.02 -5.62,-0.05 -1.92,-0.03 -3.79,-0.05 -5.62,-0.05 -1.83,0 -3.41,0 -4.74,0 -2.69,5.69 -5.12,10.84 -7.29,15.45 -2.17,4.6 -3.79,8.1 -4.85,10.49 -0.2,0.42 -1,0.74 -2.4,0.95 -1.4,0.21 -2.87,0.32 -4.42,0.32 -1.55,0 -2.92,-0.1 -4.12,-0.32 -1.2,-0.21 -1.7,-0.53 -1.5,-0.95 l 33.15,-70.23 c 0.36,-0.77 0.84,-1.33 1.43,-1.69 0.59,-0.35 1.13,-0.53 1.62,-0.53 h 41.86 c 0.77,0 1.12,0.23 1.05,0.68 -0.07,0.48 -0.24,0.99 -0.51,1.55 z m -27.37,31.64 c 1.79,-3.8 3.56,-7.5 5.3,-11.12 1.74,-3.62 3.35,-6.98 4.81,-10.07 h -20.77 l -10,21.19 z"
   id="path199" />
         <path
   d="m 481.96,116.6 c -0.73,1.55 -1.73,2.32 -2.99,2.32 h -43.02 c -0.42,0 -0.42,-0.65 0.02,-1.95 0.44,-1.3 1.02,-2.72 1.75,-4.27 0.73,-1.55 1.52,-2.97 2.38,-4.27 0.86,-1.3 1.5,-1.95 1.92,-1.95 h 32.27 l 6.92,-14.66 H 449.9 c -0.7,0 -1.15,-0.14 -1.33,-0.42 -0.18,-0.28 -0.08,-0.84 0.32,-1.69 l 19.96,-42.28 c 0.33,-0.7 0.78,-1.28 1.35,-1.74 0.57,-0.46 1.17,-0.69 1.8,-0.69 h 42.39 c 0.42,0 0.44,0.67 0.06,2 -0.38,1.34 -0.96,2.81 -1.72,4.43 -0.76,1.62 -1.55,3.09 -2.35,4.43 -0.81,1.34 -1.42,2 -1.84,2 h -32.27 l -10.05,21.3 h 31.53 c 0.56,0 0.92,0.21 1.07,0.63 0.15,0.42 0.1,0.91 -0.17,1.48 z"
   id="path201" />
         <path
   d="m 533.63,116.6 c -0.73,1.55 -1.73,2.32 -2.99,2.32 h -43.02 c -0.42,0 -0.42,-0.65 0.02,-1.95 0.44,-1.3 1.02,-2.72 1.75,-4.27 0.73,-1.55 1.52,-2.97 2.38,-4.27 0.86,-1.3 1.5,-1.95 1.92,-1.95 h 32.27 l 6.92,-14.66 h -31.32 c -0.7,0 -1.15,-0.14 -1.33,-0.42 -0.18,-0.28 -0.08,-0.84 0.32,-1.69 l 19.96,-42.28 c 0.33,-0.7 0.78,-1.28 1.35,-1.74 0.57,-0.46 1.17,-0.69 1.8,-0.69 h 42.39 c 0.42,0 0.44,0.67 0.06,2 -0.38,1.34 -0.96,2.81 -1.72,4.43 -0.76,1.62 -1.55,3.09 -2.35,4.43 -0.81,1.34 -1.42,2 -1.84,2 h -32.27 l -10.05,21.3 h 31.53 c 0.56,0 0.92,0.21 1.07,0.63 0.15,0.42 0.1,0.91 -0.17,1.48 z"
   id="path203" />
         <path
   d="m 617.94,47.42 c -0.07,0.14 -0.52,1.11 -1.37,2.9 -0.85,1.79 -1.97,4.17 -3.36,7.12 -1.39,2.95 -2.99,6.33 -4.78,10.12 -1.79,3.8 -3.65,7.73 -5.57,11.81 -1.92,4.08 -3.85,8.16 -5.77,12.23 -1.92,4.08 -3.7,7.84 -5.33,11.28 -1.63,3.45 -3.06,6.49 -4.31,9.12 -1.24,2.64 -2.13,4.52 -2.66,5.64 -0.2,0.42 -1,0.74 -2.4,0.95 -1.4,0.21 -2.86,0.32 -4.37,0.32 -1.51,0 -2.87,-0.1 -4.07,-0.32 -1.2,-0.21 -1.7,-0.53 -1.5,-0.95 0.4,-0.84 1,-2.11 1.79,-3.8 0.8,-1.69 1.73,-3.67 2.81,-5.96 1.08,-2.28 2.25,-4.8 3.51,-7.54 1.26,-2.74 2.59,-5.59 3.98,-8.54 -1.27,0 -2.81,0 -4.64,0 -1.83,0 -3.7,-0.02 -5.62,-0.05 -1.92,-0.03 -3.79,-0.05 -5.62,-0.05 -1.83,0 -3.41,0 -4.74,0 -2.69,5.69 -5.12,10.84 -7.29,15.45 -2.17,4.6 -3.79,8.1 -4.85,10.49 -0.2,0.42 -1,0.74 -2.4,0.95 -1.4,0.21 -2.87,0.32 -4.42,0.32 -1.55,0 -2.92,-0.1 -4.12,-0.32 -1.2,-0.21 -1.7,-0.53 -1.5,-0.95 l 33.15,-70.23 c 0.36,-0.77 0.84,-1.33 1.43,-1.69 0.59,-0.35 1.13,-0.53 1.62,-0.53 h 41.86 c 0.77,0 1.12,0.23 1.05,0.68 -0.07,0.48 -0.24,0.99 -0.51,1.55 z m -27.37,31.64 c 1.79,-3.8 3.56,-7.5 5.3,-11.12 1.74,-3.62 3.35,-6.98 4.81,-10.07 h -20.77 l -10,21.19 z"
   id="path205" />
         <path
   d="m 637.37,46.48 c -1.23,2.6 -2.81,5.9 -4.73,9.91 -1.93,4.01 -3.98,8.31 -6.15,12.92 -2.17,4.61 -4.41,9.35 -6.72,14.23 -2.31,4.89 -4.5,9.54 -6.59,13.97 -2.09,4.43 -3.96,8.42 -5.6,11.97 -1.64,3.55 -2.91,6.27 -3.8,8.17 -0.2,0.42 -1,0.74 -2.4,0.95 -1.4,0.21 -2.87,0.32 -4.42,0.32 -1.55,0 -2.92,-0.1 -4.12,-0.32 -1.2,-0.21 -1.7,-0.53 -1.5,-0.95 l 33.59,-71.18 c 0.2,-0.42 1,-0.74 2.4,-0.95 1.4,-0.21 2.87,-0.32 4.42,-0.32 1.55,0 2.92,0.1 4.12,0.32 1.2,0.22 1.7,0.53 1.5,0.96 z"
   id="path207" />
         <path
   id="path2140-7-3-6_1_"
   class="st4"
   d="m 641.1,53.73 -30.13,63.84 c -0.18,0.38 0.26,0.66 1.3,0.85 1.11,0.19 2.36,0.28 3.74,0.28 h 50.17 c 1.39,0 2.63,-0.09 3.74,-0.28 1.05,-0.19 1.48,-0.47 1.3,-0.85 z" />
       </g>
     </g>
   </g>

   <g
   id="g802"
   transform="matrix(1.2681548,0,0,1.2681548,-22.579296,-113.10382)"
   style="fill:#000000">
     <path
   id="path552"
   style="font-weight:bold;font-size:40px;font-family:'Fira Sans';-inkscape-font-specification:'Fira Sans Bold';fill:#000000"
   d="m 151.74075,304.87367 c -1.09334,0 -1.98636,0.34573 -2.67969,1.03906 -0.69333,0.66667 -1.04102,1.52055 -1.04102,2.56055 0,1.04 0.34769,1.90628 1.04102,2.59961 0.69333,0.66667 1.58635,1 2.67969,1 1.09333,0 1.98635,-0.33333 2.67968,-1 0.72,-0.69333 1.08008,-1.55961 1.08008,-2.59961 0,-1.04 -0.36008,-1.89388 -1.08008,-2.56055 -0.69333,-0.69333 -1.58635,-1.03906 -2.67968,-1.03906 z m 17.88086,2.08008 c -3.01333,0 -5.24165,0.66667 -6.68164,2 -1.44,1.33333 -2.16016,3.09263 -2.16016,5.2793 v 1.83984 h -3.23828 v 4.40039 h 3.23828 v 16.83985 h 6.32031 v -16.83985 h 5.48047 v 16.83985 h 6.32031 v -21.24024 h -11.80078 v -1.59961 c 0,-1.04 0.22636,-1.77255 0.67969,-2.19922 0.48,-0.42666 1.33388,-0.64062 2.56055,-0.64062 1.46666,0 2.98721,0.32094 4.56054,0.96094 l 1.75977,-4.04102 c -2.18667,-1.06667 -4.5324,-1.59961 -7.03906,-1.59961 z m -85.320316,1.95898 c -2.426665,0 -4.601487,0.57404 -6.521485,1.72071 -1.893331,1.12 -3.385183,2.77427 -4.478515,4.96094 -1.066666,2.18666 -1.601563,4.78549 -1.601563,7.79882 0,3.09333 0.520548,5.74761 1.560547,7.96094 1.066666,2.18667 2.546122,3.83899 4.439453,4.95899 1.893331,1.11999 4.121643,1.67968 6.681641,1.67968 1.786665,0 3.412241,-0.33333 4.878906,-1 1.493332,-0.66666 2.760782,-1.51859 3.800781,-2.55859 l -2.919922,-3.75977 c -0.959999,0.72 -1.853021,1.27969 -2.679687,1.67969 -0.826666,0.37333 -1.748387,0.55859 -2.761719,0.55859 -1.919998,0 -3.426199,-0.77169 -4.519531,-2.31835 -1.066666,-1.57334 -1.59961,-3.97451 -1.59961,-7.20118 0,-3.27999 0.532944,-5.70596 1.59961,-7.27929 1.093332,-1.57334 2.574741,-2.35938 4.441406,-2.35938 0.906666,0 1.758595,0.15852 2.558594,0.47852 0.799999,0.32 1.61474,0.8014 2.441406,1.4414 l 3.119141,-3.7207 c -1.199999,-1.01333 -2.479845,-1.77263 -3.839844,-2.2793 -1.333332,-0.50666 -2.866278,-0.76172 -4.599609,-0.76172 z m 55.798826,1.8418 -6.32031,0.71875 v 4.59961 h -3 v 4.40039 h 3 v 9.83985 c 0,5.09332 2.32094,7.65302 6.96094,7.67968 1.01333,0 2.02573,-0.14612 3.03906,-0.43945 1.04,-0.29333 1.94737,-0.7069 2.7207,-1.24023 l -2.11914,-4 c -0.8,0.45333 -1.56125,0.67968 -2.28125,0.67968 -0.69333,0 -1.19953,-0.212 -1.51953,-0.63867 -0.32,-0.42667 -0.48047,-1.13443 -0.48047,-2.12109 v -9.75977 h 4.20117 l 0.67969,-4.40039 h -4.88086 z m -36.32031,4.63867 c -2.08,0 -3.866045,0.5062 -5.359376,1.51953 -1.493332,0.98667 -2.627058,2.34675 -3.40039,4.08008 -0.773333,1.70667 -1.160157,3.64079 -1.160157,5.80078 0,3.41333 0.921721,6.1335 2.761719,8.16016 1.839998,2.02666 4.479924,3.03906 7.919924,3.03906 3.03999,0 5.7993,-0.98565 8.27929,-2.95898 l -2.5996,-3.51953 c -0.93334,0.64 -1.79961,1.11945 -2.59961,1.43945 -0.8,0.29333 -1.62714,0.43945 -2.48047,0.43945 -1.41333,0 -2.52032,-0.36008 -3.32032,-1.08007 -0.79999,-0.72 -1.30619,-1.97311 -1.51953,-3.75977 h 13.16016 c 0.08,-0.64 0.11914,-1.3993 0.11914,-2.2793 0,-3.41333 -0.86628,-6.08 -2.59961,-8 -1.73333,-1.92 -4.13451,-2.88086 -7.20117,-2.88086 z m 89.28125,0 c -2.08,0 -3.90714,0.49381 -5.48047,1.48047 -1.57333,0.96 -2.78729,2.30573 -3.64062,4.03906 -0.85334,1.73334 -1.2793,3.72094 -1.2793,5.96094 0,2.24 0.42596,4.20086 1.2793,5.88086 0.85333,1.65333 2.06729,2.94558 3.64062,3.87891 1.57333,0.90666 3.43961,1.35937 5.59961,1.35937 2.66666,0 5.05349,-0.83953 7.16016,-2.51953 l -2.75977,-3.91992 c -0.82667,0.50667 -1.53247,0.88109 -2.11914,1.12109 -0.58667,0.21334 -1.24094,0.31836 -1.96094,0.31836 -1.36,0 -2.39914,-0.4651 -3.11914,-1.39843 -0.72,-0.93334 -1.08008,-2.52173 -1.08008,-4.76172 0,-2.32 0.36008,-3.99907 1.08008,-5.03907 0.72,-1.03999 1.78589,-1.56054 3.19922,-1.56054 1.36,0 2.70768,0.50815 4.04102,1.52148 l 2.71875,-3.76172 c -1.04,-0.88 -2.14698,-1.53232 -3.32032,-1.95898 -1.17333,-0.42667 -2.49232,-0.64063 -3.95898,-0.64063 z m 17.63867,0 c -1.2,0 -2.50659,0.13373 -3.91992,0.40039 -1.38667,0.26667 -2.74675,0.65349 -4.08008,1.16016 l 1.44141,4.16016 c 1.04,-0.34667 2.05239,-0.61412 3.03906,-0.80078 0.98667,-0.21334 1.8262,-0.32032 2.51953,-0.32032 1.33333,0 2.26745,0.24071 2.80078,0.72071 0.53334,0.45333 0.80078,1.30721 0.80078,2.56054 v 0.91992 h -2.16015 c -3.22667,0 -5.69373,0.61318 -7.40039,1.83985 -1.70667,1.22666 -2.56055,3.00031 -2.56055,5.32031 0,1.97333 0.62753,3.57216 1.88086,4.79883 1.25333,1.22666 2.9324,1.83984 5.03906,1.83984 2.88,0 5.01373,-1.06588 6.40039,-3.19922 0.45334,1.01334 1.09326,1.76024 1.91992,2.24024 0.82667,0.45333 1.89451,0.73318 3.20118,0.83984 l 1.31836,-4.11914 c -0.50667,-0.18666 -0.87915,-0.46846 -1.11915,-0.8418 -0.21333,-0.37333 -0.32031,-0.95976 -0.32031,-1.75976 v -8.24024 c 0,-2.50666 -0.70581,-4.38534 -2.11914,-5.63867 -1.41333,-1.25333 -3.64164,-1.88086 -6.68164,-1.88086 z m 31.04102,0 c -1.73333,0 -3.26628,0.47946 -4.59961,1.43946 -1.30667,0.96 -2.32102,2.29333 -3.04102,4 -0.72,1.67999 -1.08008,3.61411 -1.08008,5.80078 0,3.51999 0.68102,6.29365 2.04102,8.32031 1.38666,2.02666 3.39906,3.03906 6.03906,3.03906 2.34667,0 4.22729,-0.90542 5.64063,-2.71875 v 10.24024 l 6.32031,0.67968 v -30.12109 h -5.51953 l -0.32031,1.83984 c -1.49334,-1.67999 -3.32048,-2.51953 -5.48047,-2.51953 z m 47.88086,0 c -2.08,0 -3.868,0.5062 -5.36133,1.51953 -1.49333,0.98667 -2.62706,2.34675 -3.40039,4.08008 -0.77334,1.70667 -1.15821,3.64079 -1.15821,5.80078 0,3.41333 0.91977,6.1335 2.75977,8.16016 1.84,2.02666 4.47993,3.03906 7.91992,3.03906 3.04,0 5.7993,-0.98565 8.2793,-2.95898 l -2.59961,-3.51953 c -0.93333,0.64 -1.79961,1.11945 -2.59961,1.43945 -0.8,0.29333 -1.62714,0.43945 -2.48047,0.43945 -1.41333,0 -2.52031,-0.36008 -3.32031,-1.08007 -0.8,-0.72 -1.3062,-1.97311 -1.51953,-3.75977 h 13.16015 c 0.08,-0.64 0.11914,-1.3993 0.11914,-2.2793 0,-3.41333 -0.86627,-6.08 -2.59961,-8 -1.73333,-1.92 -4.13255,-2.88086 -7.19921,-2.88086 z m -160.96094,0.0801 c -1.22667,0 -2.33365,0.42792 -3.32031,1.28125 -0.96,0.82667 -1.68016,1.97279 -2.16016,3.43945 l -0.51953,-4.12109 h -5.51953 v 21.24024 h 6.32031 v -10.51954 c 0.37333,-1.73333 0.87953,-3.02752 1.51953,-3.88086 0.66667,-0.87999 1.62558,-1.31835 2.87891,-1.31835 0.48,0 1.11992,0.0926 1.91992,0.27929 l 1,-6.11914 c -0.64,-0.18666 -1.34581,-0.28125 -2.11914,-0.28125 z m 19.96094,0.59961 v 21.24024 h 6.31836 v -21.24024 z m 109.19921,0 v 15.24024 c 0,2.10666 0.49381,3.74659 1.48047,4.91992 1.01334,1.17333 2.49279,1.75976 4.43946,1.75976 2.74666,0 4.89278,-1.11937 6.43945,-3.35937 l 0.28125,2.67969 h 5.47852 v -21.24024 h -6.31836 v 14.75977 c -0.96,1.65333 -2.10808,2.48047 -3.44141,2.48047 -0.69333,0 -1.21193,-0.19961 -1.55859,-0.59961 -0.32,-0.42667 -0.48047,-1.15922 -0.48047,-2.19922 v -14.44141 z m 47.48047,0.83984 c -1.01333,0 -1.87961,0.36008 -2.59961,1.08008 -0.69333,0.69334 -1.04101,1.53482 -1.04101,2.52149 0,1.01333 0.34768,1.87961 1.04101,2.59961 0.72,0.69333 1.58628,1.03906 2.59961,1.03906 0.98667,0 1.8262,-0.34573 2.51953,-1.03906 0.72,-0.72 1.08008,-1.58628 1.08008,-2.59961 0,-0.98667 -0.36008,-1.82815 -1.08008,-2.52149 -0.69333,-0.72 -1.53286,-1.08008 -2.51953,-1.08008 z m -201.36132,2.68165 c 2.23999,0 3.38807,1.62557 3.4414,4.8789 v 0.28125 h -7.08008 c 0.13334,-1.84 0.49342,-3.16094 1.08008,-3.96094 0.61333,-0.8 1.46526,-1.19921 2.5586,-1.19921 z m 185.83984,0 c 2.24,0 3.38807,1.62557 3.44141,4.8789 v 0.28125 h -7.08008 c 0.13333,-1.84 0.49341,-3.16094 1.08008,-3.96094 0.61333,-0.8 1.46526,-1.19921 2.55859,-1.19921 z m -46.31836,0.39843 c 0.66667,0 1.2531,0.14808 1.75977,0.44141 0.50666,0.29333 1.01286,0.74604 1.51953,1.35937 v 9.16016 c -0.98667,1.6 -2.21303,2.40039 -3.67969,2.40039 -1.12,0 -1.98628,-0.4938 -2.59961,-1.48047 -0.58667,-0.98666 -0.88086,-2.71922 -0.88086,-5.19922 0,-2.29333 0.34768,-3.97435 1.04102,-5.04101 0.69333,-1.09333 1.63984,-1.64063 2.83984,-1.64063 z m -31.7207,7.68164 h 1.56054 v 3.75977 c -0.8,1.36 -1.92133,2.03906 -3.36132,2.03906 -0.77334,0 -1.38652,-0.22635 -1.83985,-0.67969 -0.42666,-0.48 -0.63867,-1.14666 -0.63867,-2 0,-1.06666 0.34573,-1.8527 1.03906,-2.35937 0.72,-0.50667 1.80024,-0.75977 3.24024,-0.75977 z m 93.56054,3.08008 c -1.01333,0 -1.87961,0.35813 -2.59961,1.07813 -0.69333,0.69333 -1.04101,1.53482 -1.04101,2.52148 0,1.01333 0.34768,1.87961 1.04101,2.59961 0.72,0.69333 1.58628,1.03906 2.59961,1.03906 0.98667,0 1.8262,-0.34573 2.51953,-1.03906 0.72,-0.72 1.08008,-1.58628 1.08008,-2.59961 0,-0.98666 -0.36008,-1.82815 -1.08008,-2.52148 -0.69333,-0.72 -1.53286,-1.07813 -2.51953,-1.07813 z" />
   </g>

   <g
   id="g1441"><path
     id="path1333"
     style="font-weight:bold;font-size:18.6667px;font-family:'Fira Sans';-inkscape-font-specification:'Fira Sans Bold';fill:#000000"
     d="M 185.16602 700.08203 L 181.09766 702.54688 L 181.91797 704.05859 L 186.32422 702.28516 L 185.16602 700.08203 z M 148.16797 700.53125 C 147.65774 700.53125 147.24152 700.69207 146.91797 701.01562 C 146.59442 701.32674 146.43359 701.7256 146.43359 702.21094 C 146.43359 702.69627 146.59442 703.10028 146.91797 703.42383 C 147.24152 703.73494 147.65774 703.89063 148.16797 703.89062 C 148.67819 703.89063 149.09636 703.73494 149.41992 703.42383 C 149.75592 703.10028 149.92383 702.69627 149.92383 702.21094 C 149.92383 701.7256 149.75592 701.32674 149.41992 701.01562 C 149.09636 700.69207 148.67819 700.53125 148.16797 700.53125 z M 193.58398 700.88477 C 193.06131 700.88477 192.58912 701.09129 192.16602 701.50195 C 191.75535 701.91263 191.42663 702.44078 191.17773 703.08789 L 192.65234 703.79688 C 192.81412 703.51065 192.96272 703.30608 193.09961 703.18164 C 193.24894 703.04475 193.42907 702.97656 193.64062 702.97656 C 193.83973 702.97656 194.09514 703.0885 194.40625 703.3125 C 194.6427 703.47428 194.86144 703.59843 195.06055 703.68555 C 195.25966 703.77265 195.49575 703.81641 195.76953 703.81641 C 196.2922 703.81641 196.7573 703.61698 197.16797 703.21875 C 197.59108 702.82053 197.93398 702.29237 198.19531 701.63281 L 196.7207 700.9043 C 196.55892 701.19052 196.40324 701.40218 196.25391 701.53906 C 196.11702 701.66351 195.94911 701.72656 195.75 701.72656 C 195.638 701.72656 195.52606 701.70019 195.41406 701.65039 C 195.31451 701.60061 195.17813 701.5202 195.00391 701.4082 C 194.75502 701.24642 194.52405 701.12226 194.3125 701.03516 C 194.11339 700.9356 193.8702 700.88477 193.58398 700.88477 z M 144.02539 701.50195 L 141.07617 701.81836 L 141.07617 713.15039 C 141.07617 714.05883 141.31227 714.76199 141.78516 715.25977 C 142.27049 715.7451 142.94211 715.98633 143.80078 715.98633 C 144.46033 715.98633 145.05864 715.87439 145.59375 715.65039 L 145.01367 713.56055 C 144.86434 713.62275 144.70352 713.6543 144.5293 713.6543 C 144.1933 713.6543 144.02539 713.44778 144.02539 713.03711 L 144.02539 701.50195 z M 104.75 702.73438 L 100.84961 715.66992 L 104.02148 715.66992 L 104.67578 712.88867 L 108.44531 712.88867 L 109.11719 715.66992 L 112.36523 715.66992 L 108.46484 702.73438 L 104.75 702.73438 z M 167.35742 702.73438 L 167.35742 715.66992 L 170.08398 715.66992 L 170.08398 710.92773 C 170.08398 709.89484 170.04537 709.00643 169.9707 708.25977 C 169.90848 707.50065 169.81585 706.6296 169.69141 705.64648 L 173.42578 715.66992 L 177.32617 715.66992 L 177.32617 702.73438 L 174.58203 702.73438 L 174.58203 707.96094 C 174.58203 709.46672 174.71841 711.0705 174.99219 712.77539 L 171.16602 702.73438 L 167.35742 702.73438 z M 106.56055 704.95508 L 107.92383 710.66602 L 105.19727 710.66602 L 106.56055 704.95508 z M 134.93359 705.43945 C 133.96293 705.43945 133.13049 705.6775 132.43359 706.15039 C 131.73671 706.61084 131.2066 707.24384 130.8457 708.05273 C 130.48482 708.84918 130.30469 709.75177 130.30469 710.75977 C 130.30469 712.35266 130.73508 713.62259 131.59375 714.56836 C 132.45242 715.51414 133.68372 715.98633 135.28906 715.98633 C 136.70773 715.98633 137.995 715.52635 139.15234 714.60547 L 137.93945 712.96289 C 137.5039 713.26156 137.0999 713.48543 136.72656 713.63477 C 136.35323 713.77165 135.96658 713.83984 135.56836 713.83984 C 134.9088 713.83984 134.39286 713.67194 134.01953 713.33594 C 133.6462 712.99994 133.4101 712.41581 133.31055 711.58203 L 139.45117 711.58203 C 139.48851 711.28336 139.50781 710.92824 139.50781 710.51758 C 139.50781 708.92469 139.10381 707.68116 138.29492 706.78516 C 137.48603 705.88916 136.36471 705.43945 134.93359 705.43945 z M 156.26953 705.43945 C 155.27397 705.43945 154.41 705.6582 153.67578 706.09375 C 152.954 706.52931 152.39432 707.14496 151.99609 707.94141 C 151.61031 708.72541 151.41602 709.6473 151.41602 710.70508 C 151.41602 712.37264 151.84641 713.67214 152.70508 714.60547 C 153.57619 715.52635 154.76375 715.98633 156.26953 715.98633 C 157.26508 715.98633 158.12392 715.76954 158.8457 715.33398 C 159.57993 714.89842 160.13962 714.28791 160.52539 713.50391 C 160.92362 712.70746 161.12305 711.78044 161.12305 710.72266 C 161.12305 709.0551 160.6946 707.76074 159.83594 706.83984 C 158.97727 705.90651 157.78775 705.43945 156.26953 705.43945 z M 196.16016 705.43945 C 195.55038 705.43945 194.99778 705.56557 194.5 705.81445 C 194.01467 706.06335 193.55983 706.43582 193.13672 706.93359 L 192.93164 705.75781 L 190.35547 705.75781 L 190.35547 715.66992 L 193.30469 715.66992 L 193.30469 708.89453 C 193.85224 708.03587 194.42415 707.60547 195.02148 707.60547 C 195.3326 707.60547 195.56356 707.70519 195.71289 707.9043 C 195.87467 708.09096 195.95508 708.43386 195.95508 708.93164 L 195.95508 715.66992 L 198.9043 715.66992 L 198.9043 708.42773 C 198.9043 707.48196 198.66307 706.74728 198.17773 706.22461 C 197.6924 705.70194 197.01882 705.43945 196.16016 705.43945 z M 205.19531 705.43945 C 204.22465 705.43945 203.39025 705.6775 202.69336 706.15039 C 201.99647 706.61084 201.46831 707.24384 201.10742 708.05273 C 200.74654 708.84918 200.56641 709.75177 200.56641 710.75977 C 200.56641 712.35266 200.99485 713.62259 201.85352 714.56836 C 202.71218 715.51414 203.94544 715.98633 205.55078 715.98633 C 206.96945 715.98633 208.25672 715.52635 209.41406 714.60547 L 208.20117 712.96289 C 207.76562 713.26156 207.36162 713.48543 206.98828 713.63477 C 206.61495 713.77165 206.2283 713.83984 205.83008 713.83984 C 205.17052 713.83984 204.65458 713.67194 204.28125 713.33594 C 203.90792 712.99994 203.67182 712.41581 203.57227 711.58203 L 209.71289 711.58203 C 209.75022 711.28336 209.76953 710.92824 209.76953 710.51758 C 209.76953 708.92469 209.36357 707.68116 208.55469 706.78516 C 207.74579 705.88916 206.62642 705.43945 205.19531 705.43945 z M 129.31641 705.47852 C 128.74397 705.47852 128.22607 705.67599 127.76562 706.07422 C 127.31763 706.45999 126.98181 706.99524 126.75781 707.67969 L 126.51562 705.75781 L 123.93945 705.75781 L 123.93945 715.66992 L 126.88867 715.66992 L 126.88867 710.75977 C 127.0629 709.95087 127.29899 709.34744 127.59766 708.94922 C 127.90877 708.53855 128.35652 708.33398 128.94141 708.33398 C 129.16541 708.33398 129.46456 708.37774 129.83789 708.46484 L 130.30469 705.60742 C 130.00602 705.52031 129.6773 705.47852 129.31641 705.47852 z M 113.16797 705.75781 L 113.16797 712.86914 C 113.16797 713.85225 113.39893 714.61846 113.85938 715.16602 C 114.33226 715.71357 115.02319 715.98633 115.93164 715.98633 C 117.21342 715.98633 118.21572 715.4633 118.9375 714.41797 L 119.06836 715.66992 L 121.625 715.66992 L 121.625 705.75781 L 118.67578 705.75781 L 118.67578 712.64648 C 118.22778 713.41804 117.69253 713.80273 117.07031 713.80273 C 116.74675 713.80273 116.50357 713.7101 116.3418 713.52344 C 116.19246 713.32432 116.11719 712.98143 116.11719 712.49609 L 116.11719 705.75781 L 113.16797 705.75781 z M 146.71289 705.75781 L 146.71289 715.66992 L 149.66211 715.66992 L 149.66211 705.75781 L 146.71289 705.75781 z M 179.58398 705.75781 L 179.58398 712.86914 C 179.58398 713.85225 179.81494 714.61846 180.27539 715.16602 C 180.74828 715.71357 181.43921 715.98633 182.34766 715.98633 C 183.62943 715.98633 184.63174 715.4633 185.35352 714.41797 L 185.48438 715.66992 L 188.04102 715.66992 L 188.04102 705.75781 L 185.0918 705.75781 L 185.0918 712.64648 C 184.6438 713.41804 184.10855 713.80273 183.48633 713.80273 C 183.16278 713.80273 182.91959 713.7101 182.75781 713.52344 C 182.60848 713.32432 182.53516 712.98143 182.53516 712.49609 L 182.53516 705.75781 L 179.58398 705.75781 z M 210.74023 705.75781 L 210.74023 707.97852 L 214.8457 707.97852 L 210.34766 713.57812 L 210.34766 715.66992 L 218.07617 715.66992 L 218.33789 713.42969 L 213.76367 713.42969 L 218.24414 707.83008 L 218.24414 705.75781 L 210.74023 705.75781 z M 135.00977 707.40039 C 136.05512 707.40039 136.58841 708.15951 136.61328 709.67773 L 136.61328 709.80859 L 133.31055 709.80859 C 133.37277 708.94992 133.54067 708.33427 133.81445 707.96094 C 134.10067 707.5876 134.49954 707.40039 135.00977 707.40039 z M 205.26953 707.40039 C 206.31488 707.40039 206.85013 708.15951 206.875 709.67773 L 206.875 709.80859 L 203.57227 709.80859 C 203.63449 708.94992 203.80239 708.33427 204.07617 707.96094 C 204.36239 707.5876 204.75931 707.40039 205.26953 707.40039 z M 156.26953 707.60547 C 156.87931 707.60547 157.32706 707.85379 157.61328 708.35156 C 157.91195 708.84934 158.0625 709.63999 158.0625 710.72266 C 158.0625 711.78044 157.91195 712.56399 157.61328 713.07422 C 157.31461 713.572 156.86686 713.82227 156.26953 713.82227 C 155.65975 713.82227 155.20687 713.572 154.9082 713.07422 C 154.62198 712.57644 154.47852 711.78774 154.47852 710.70508 C 154.47852 709.6473 154.62711 708.86887 154.92578 708.37109 C 155.22445 707.86087 155.6722 707.60547 156.26953 707.60547 z M 127.4043 725.16016 C 126.45966 725.16016 125.58399 725.40472 124.7793 725.89453 C 123.98627 726.37268 123.3512 727.08466 122.87305 728.0293 C 122.40656 728.96227 122.17383 730.08055 122.17383 731.38672 C 122.17383 733.4276 122.61563 734.97976 123.50195 736.04102 C 124.39995 737.10227 125.64246 737.63281 127.22852 737.63281 C 128.60465 737.63281 129.9162 737.27585 131.16406 736.56445 L 131.16406 730.74023 L 127.19336 730.74023 L 127.38672 732.08789 L 129.51953 732.08789 L 129.51953 735.72656 C 128.87811 736.08809 128.11484 736.26758 127.22852 736.26758 C 126.14393 736.26758 125.3215 735.87707 124.76172 735.0957 C 124.21359 734.31434 123.93945 733.07774 123.93945 731.38672 C 123.93945 730.26715 124.10314 729.3461 124.42969 728.62305 C 124.75623 727.88833 125.17632 727.35779 125.68945 727.03125 C 126.21425 726.69304 126.7862 726.52344 127.4043 726.52344 C 127.94076 726.52344 128.40622 726.60034 128.80273 726.75195 C 129.19925 726.90356 129.61342 727.15404 130.04492 727.50391 L 131.02539 726.48828 C 130.47727 726.03346 129.92307 725.70211 129.36328 725.49219 C 128.81516 725.27061 128.16234 725.16016 127.4043 725.16016 z M 171.17188 725.92969 L 169.5625 726.12109 L 169.5625 728.20312 L 167.95312 728.20312 L 167.95312 729.44531 L 169.5625 729.44531 L 169.5625 735.00781 C 169.5625 735.85916 169.77748 736.51198 170.20898 736.9668 C 170.65215 737.40996 171.26551 737.63281 172.04688 737.63281 C 172.81658 737.63281 173.5049 737.42179 174.11133 737.00195 L 173.49805 735.93555 C 173.04323 736.18045 172.63497 736.30273 172.27344 736.30273 C 171.87692 736.30273 171.59095 736.1982 171.41602 735.98828 C 171.25275 735.7667 171.17188 735.41565 171.17188 734.9375 L 171.17188 729.44531 L 173.18359 729.44531 L 173.35938 728.20312 L 171.17188 728.20312 L 171.17188 725.92969 z M 137.07812 727.99414 C 136.29676 727.99414 135.61436 728.20321 135.03125 728.62305 C 134.4598 729.04289 134.01605 729.62667 133.70117 730.37305 C 133.39796 731.10777 133.24609 731.95386 133.24609 732.91016 C 133.24609 734.37959 133.60306 735.53337 134.31445 736.37305 C 135.03751 737.21273 136.03942 737.63281 137.32227 737.63281 C 138.48848 737.63281 139.56139 737.24822 140.54102 736.47852 L 139.8418 735.51562 C 139.43362 735.79552 139.04311 736.00062 138.66992 736.12891 C 138.29673 736.25719 137.88847 736.32031 137.44531 736.32031 C 136.74558 736.32031 136.17363 736.08166 135.73047 735.60352 C 135.28731 735.12536 135.03091 734.37789 134.96094 733.36328 L 140.83789 733.36328 C 140.86122 733.08339 140.87305 732.80925 140.87305 732.54102 C 140.87305 731.11823 140.54761 730.00586 139.89453 729.20117 C 139.24145 728.39648 138.30266 727.99414 137.07812 727.99414 z M 147.45117 727.99414 C 146.89139 727.99414 146.40226 728.16771 145.98242 728.51758 C 145.56258 728.86744 145.22927 729.38811 144.98438 730.07617 L 144.82617 728.20312 L 143.44531 728.20312 L 143.44531 737.42188 L 145.05469 737.42188 L 145.05469 732.15625 C 145.25294 731.26992 145.52709 730.61711 145.87695 730.19727 C 146.22682 729.77743 146.68637 729.56836 147.25781 729.56836 C 147.51439 729.56836 147.78261 729.60385 148.0625 729.67383 L 148.36133 728.09766 C 148.08144 728.02768 147.77771 727.99414 147.45117 727.99414 z M 152.83984 727.99414 C 152.05848 727.99414 151.37608 728.20321 150.79297 728.62305 C 150.22152 729.04289 149.77777 729.62667 149.46289 730.37305 C 149.15968 731.10777 149.00781 731.95386 149.00781 732.91016 C 149.00781 734.37959 149.36283 735.53337 150.07422 736.37305 C 150.79727 737.21273 151.80115 737.63281 153.08398 737.63281 C 154.2502 737.63281 155.32311 737.24822 156.30273 736.47852 L 155.60352 735.51562 C 155.19534 735.79552 154.80483 736.00062 154.43164 736.12891 C 154.05845 736.25719 153.65019 736.32031 153.20703 736.32031 C 152.5073 736.32031 151.93535 736.08166 151.49219 735.60352 C 151.04903 735.12536 150.79263 734.37789 150.72266 733.36328 L 156.59961 733.36328 C 156.62294 733.08339 156.63477 732.80925 156.63477 732.54102 C 156.63477 731.11823 156.30934 730.00586 155.65625 729.20117 C 155.00317 728.39648 154.06438 727.99414 152.83984 727.99414 z M 163.54492 727.99414 C 162.96182 727.99414 162.42536 728.13417 161.93555 728.41406 C 161.45739 728.69396 161.05506 729.07855 160.72852 729.56836 L 160.58789 728.20312 L 159.20703 728.20312 L 159.20703 737.42188 L 160.81641 737.42188 L 160.81641 730.88086 C 161.14295 730.35606 161.49205 729.95372 161.86523 729.67383 C 162.23843 729.39394 162.67034 729.25391 163.16016 729.25391 C 163.6383 729.25391 163.99923 729.38802 164.24414 729.65625 C 164.48905 729.92448 164.61133 730.38402 164.61133 731.03711 L 164.61133 737.42188 L 166.2207 737.42188 L 166.2207 730.81055 C 166.2207 729.93589 165.98206 729.24757 165.50391 728.74609 C 165.03742 728.24462 164.3846 727.99414 163.54492 727.99414 z M 178.67578 727.99414 C 177.89442 727.99414 177.21202 728.20321 176.62891 728.62305 C 176.05746 729.04289 175.61566 729.62667 175.30078 730.37305 C 174.99757 731.10777 174.8457 731.95386 174.8457 732.91016 C 174.8457 734.37959 175.20072 735.53337 175.91211 736.37305 C 176.63516 737.21273 177.63903 737.63281 178.92188 737.63281 C 180.08809 737.63281 181.16101 737.24822 182.14062 736.47852 L 181.44141 735.51562 C 181.03323 735.79552 180.64076 736.00062 180.26758 736.12891 C 179.89439 736.25719 179.48613 736.32031 179.04297 736.32031 C 178.34324 736.32031 177.77324 736.08166 177.33008 735.60352 C 176.88691 735.12536 176.63052 734.37789 176.56055 733.36328 L 182.4375 733.36328 C 182.46083 733.08339 182.47266 732.80925 182.47266 732.54102 C 182.47266 731.11823 182.14527 730.00586 181.49219 729.20117 C 180.83911 728.39648 179.90031 727.99414 178.67578 727.99414 z M 137.11328 729.27148 C 137.83633 729.27148 138.3787 729.51013 138.74023 729.98828 C 139.10176 730.46643 139.28125 731.16066 139.28125 732.07031 L 139.28125 732.17383 L 134.96094 732.17383 C 135.07756 730.2379 135.79546 729.27148 137.11328 729.27148 z M 152.87305 729.27148 C 153.5961 729.27148 154.13847 729.51013 154.5 729.98828 C 154.86153 730.46643 155.04297 731.16066 155.04297 732.07031 L 155.04297 732.17383 L 150.72266 732.17383 C 150.83928 730.2379 151.55521 729.27148 152.87305 729.27148 z M 178.71094 729.27148 C 179.43399 729.27148 179.97636 729.51013 180.33789 729.98828 C 180.69942 730.46643 180.88086 731.16066 180.88086 732.07031 L 180.88086 732.17383 L 176.56055 732.17383 C 176.67717 730.2379 177.39311 729.27148 178.71094 729.27148 z " /><path
     id="line844"
     style="fill:#000000;stroke:#1d1d1b;stroke-width:0.6664;stroke-linecap:square;stroke-miterlimit:10"
     class="st29"
     d="M 70.039646,695.53003 H 249.14609" /></g>
   <g
   id="g852"
   transform="translate(-2.8852375,-31.642834)"
   style="fill:#000000">
     <text
   transform="translate(70.2323,537.4088)"
   class="st10 st22 st23"
   id="text846"
   style="font-size:50px;font-family:SairaExtraCondensed-SemiBold;fill:#000000"><tspan
     style="font-style:normal;font-variant:normal;font-weight:600;font-stretch:extra-condensed;font-family:'Saira ExtraCondensed';-inkscape-font-specification:'Saira ExtraCondensed,  Semi-Bold Extra-Condensed';fill:#000000"
     id="tspan1220">{{ certificado.id_formacion }}</tspan></text>
     <g
   id="g850"
   style="fill:#000000">
       
     </g>
   </g>
   <g
   id="g824"
   transform="translate(-2.0365375,20)"
   style="">
     <text
   id="text822"
   style="font-size:16px;fill:#000000"
   x="70.383598"
   y="189.94881">                  <tspan
   x="70.383598"
   y="189.94881"
   class="st24 st25"
   id="tspan812"
   style="font-style:normal;font-variant:normal;font-weight:normal;font-stretch:normal;font-size:16px;font-family:'Fira Sans';-inkscape-font-specification:'Fira Sans';fill:#000000">Servicios ASSAI</tspan><tspan
   sodipodi:role="line"
   x="70.383598"
   y="210.07942"
   id="tspan1148"
   style="font-size:16px;fill:#000000">Nit: 1039083901-1</tspan><tspan
   sodipodi:role="line"
   x="70.383598"
   y="230.07942"
   style="font-size:16px;fill:#000000"
   id="tspan1838">Según matricula mercantil 110503</tspan></text>
   </g>
   <g
   id="g810"
   transform="translate(-2.8852373,-14.236986)">
     <g
   id="g808">
       <text
   class="st11 st22 st23"
   id="text806"
   style="font-style:normal;font-variant:normal;font-weight:600;font-stretch:extra-condensed;font-size:50px;font-family:'Saira ExtraCondensed';-inkscape-font-specification:'Saira ExtraCondensed,  Semi-Bold Extra-Condensed';fill:#0066ff"
   x="70.2323"
   y="397.4498">{{ estudiante.nombre_1 }} {{ estudiante.nombre_2 }} {{ estudiante.apellido_1 }} {{ estudiante.apellido_2 }}</text>
     </g>
   </g>
   
   <g
   id="g1210"
   transform="translate(-2.8646608,220)"
   style="fill:#000000">
     <text
   id="text1208"
   style="font-size:16px;fill:#000000"
   x="70.383598"
   y="327.94879"><tspan
     sodipodi:role="line"
     x="70.383598"
     y="327.94879"
     id="tspan1206"
     style="font-size:16px;fill:#000000">Con una duración de {{ formacion.horas }} horas.</tspan><tspan
     sodipodi:role="line"
     x="70.383598"
     y="347.94879"
     id="tspan1214"
     style="font-size:16px;fill:#000000">En testimonio de ello se firma en Apartadó,</tspan><tspan
     sodipodi:role="line"
     x="70.383598"
     y="367.94879"
     id="tspan1216"
     style="font-size:16px;fill:#000000">el día {{ certificado.fecha }}. Vence el {{ certificado.fecha_vencimiento }}     </tspan></text>
   </g>
 <g
   id="g817"
   transform="translate(233.21787,-20)"
   style="fill:#000000">
     <g
   id="g804"
   transform="translate(32.921578,-12)"
   style="fill:#000000">
       <text
   transform="translate(94.952,747.6696)"
   class="st26 st27"
   id="text802"
   style="font-size:18.6667px;font-family:FiraSans-SemiBold;fill:#000000"
   x="58.744091"
   y="0"><tspan
     sodipodi:role="line"
     id="tspan1638"
     x="58.744095"
     y="0"
     style="font-style:normal;font-variant:normal;font-weight:bold;font-stretch:normal;font-size:18.6667px;font-family:'Fira Sans';-inkscape-font-specification:'Fira Sans Bold';text-align:center;text-anchor:middle;fill:#000000">{{ id_Docente }}</tspan></text>
     </g>
     <g
   id="g813"
   transform="translate(3.274552,-12)"
   style="fill:#000000">
       
       <text
   class="st24 st28"
   id="text811"
   style="font-size:17.4933px;font-family:FiraSans-Regular;fill:#000000"
   x="31.103086"
   y="0"
   transform="translate(144.7186,769.4225)"><tspan
     style="font-style:normal;font-variant:normal;font-weight:normal;font-stretch:normal;font-size:17.4933px;font-family:'Fira Sans';-inkscape-font-specification:'Fira Sans';text-align:center;text-anchor:middle;fill:#000000"
     id="tspan809">Docente</tspan></text>
     </g>
     <path
   id="path815"
   style="stroke:#1d1d1b;stroke-width:0.6664;stroke-linecap:square;stroke-miterlimit:10;fill:#000000"
   class="st29"
   d="M 96.821777,715.53003 H 275.92822" />
   </g><g
   id="g1132"
   style="fill:#000000"
   transform="translate(0,1.215621)"><g
     id="g1182"
     transform="translate(-2.9349733,196.09371)"
     style="fill:#000000">
     <g
   aria-label="Con documento de identidad:
Cursó y aprobó el curso de     "
   id="text1180"
   style="font-size:16px;fill:#000000"><path
     d="m 80.930473,227.10506 q -0.429687,0.1875 -0.78125,0.35156 -0.34375,0.16406 -0.90625,0.34375 -0.476562,0.14844 -1.039062,0.25 -0.554688,0.10937 -1.226563,0.10937 -1.265625,0 -2.304687,-0.35156 -1.03125,-0.35937 -1.796875,-1.11719 -0.75,-0.74218 -1.171875,-1.88281 -0.421875,-1.14844 -0.421875,-2.66406 0,-1.4375 0.40625,-2.57031 0.40625,-1.13282 1.171875,-1.91407 0.742187,-0.75781 1.789062,-1.15625 1.054688,-0.39843 2.335938,-0.39843 0.9375,0 1.867187,0.22656 0.9375,0.22656 2.078125,0.79687 v 1.83594 h -0.117187 q -0.960938,-0.80469 -1.90625,-1.17187 -0.945313,-0.36719 -2.023438,-0.36719 -0.882812,0 -1.59375,0.28906 -0.703125,0.28125 -1.257812,0.88281 -0.539063,0.58594 -0.84375,1.48438 -0.296875,0.89062 -0.296875,2.0625 0,1.22656 0.328125,2.10937 0.335937,0.88282 0.859375,1.4375 0.546875,0.57813 1.273437,0.85938 0.734375,0.27344 1.546875,0.27344 1.117188,0 2.09375,-0.38282 0.976563,-0.38281 1.828125,-1.14843 h 0.109375 z"
     id="path991"
     style="fill:#000000" /><path
     d="m 90.438286,223.58943 q 0,2.13281 -1.09375,3.36719 -1.09375,1.23437 -2.929688,1.23437 -1.851562,0 -2.945312,-1.23437 -1.085938,-1.23438 -1.085938,-3.36719 0,-2.13281 1.085938,-3.36719 1.09375,-1.24218 2.945312,-1.24218 1.835938,0 2.929688,1.24218 1.09375,1.23438 1.09375,3.36719 z m -1.515625,0 q 0,-1.69531 -0.664063,-2.51562 -0.664062,-0.82813 -1.84375,-0.82813 -1.195312,0 -1.859375,0.82813 -0.65625,0.82031 -0.65625,2.51562 0,1.64063 0.664063,2.49219 0.664062,0.84375 1.851562,0.84375 1.171875,0 1.835938,-0.83594 0.671875,-0.84375 0.671875,-2.5 z"
     id="path993"
     style="fill:#000000" /><path
     d="m 100.0086,227.94881 h -1.468752 v -4.96875 q 0,-0.60157 -0.07031,-1.125 -0.07031,-0.53125 -0.257813,-0.82813 -0.195312,-0.32812 -0.5625,-0.48437 -0.367187,-0.16407 -0.953125,-0.16407 -0.601562,0 -1.257812,0.29688 -0.65625,0.29687 -1.257813,0.75781 v 6.51563 h -1.46875 v -8.72657 h 1.46875 v 0.96875 q 0.6875,-0.57031 1.421875,-0.89062 0.734375,-0.32031 1.507813,-0.32031 1.414062,0 2.15625,0.85156 0.742187,0.85156 0.742187,2.45312 z"
     id="path995"
     style="fill:#000000" /><path
     d="m 115.53985,227.94881 h -1.46875 v -0.91407 q -0.63281,0.54688 -1.32031,0.85157 -0.6875,0.30468 -1.49219,0.30468 -1.5625,0 -2.48438,-1.20312 -0.91406,-1.20313 -0.91406,-3.33594 0,-1.10937 0.3125,-1.97656 0.32031,-0.86719 0.85938,-1.47656 0.53125,-0.59375 1.23437,-0.90625 0.71094,-0.3125 1.46875,-0.3125 0.6875,0 1.21875,0.14843 0.53125,0.14063 1.11719,0.44532 v -3.78125 h 1.46875 z m -1.46875,-2.14844 v -5.00781 q -0.59375,-0.26563 -1.0625,-0.36719 -0.46875,-0.10156 -1.02344,-0.10156 -1.23437,0 -1.92187,0.85937 -0.6875,0.85938 -0.6875,2.4375 0,1.55469 0.53125,2.36719 0.53125,0.80469 1.70312,0.80469 0.625,0 1.26563,-0.27344 0.64062,-0.28125 1.19531,-0.71875 z"
     id="path997"
     style="fill:#000000" /><path
     d="m 125.86797,223.58943 q 0,2.13281 -1.09375,3.36719 -1.09375,1.23437 -2.92968,1.23437 -1.85157,0 -2.94532,-1.23437 -1.08593,-1.23438 -1.08593,-3.36719 0,-2.13281 1.08593,-3.36719 1.09375,-1.24218 2.94532,-1.24218 1.83593,0 2.92968,1.24218 1.09375,1.23438 1.09375,3.36719 z m -1.51562,0 q 0,-1.69531 -0.66406,-2.51562 -0.66407,-0.82813 -1.84375,-0.82813 -1.19532,0 -1.85938,0.82813 -0.65625,0.82031 -0.65625,2.51562 0,1.64063 0.66406,2.49219 0.66407,0.84375 1.85157,0.84375 1.17187,0 1.83593,-0.83594 0.67188,-0.84375 0.67188,-2.5 z"
     id="path999"
     style="fill:#000000" /><path
     d="m 134.59454,227.40193 q -0.73438,0.35156 -1.39844,0.54688 -0.65625,0.19531 -1.39844,0.19531 -0.94531,0 -1.73437,-0.27344 -0.78907,-0.28125 -1.35157,-0.84375 -0.57031,-0.5625 -0.88281,-1.42187 -0.3125,-0.85938 -0.3125,-2.00782 0,-2.14062 1.17188,-3.35937 1.17968,-1.21875 3.10937,-1.21875 0.75,0 1.46875,0.21094 0.72656,0.21093 1.32813,0.51562 v 1.63281 h -0.0781 q -0.67187,-0.52343 -1.39062,-0.80468 -0.71094,-0.28125 -1.39063,-0.28125 -1.25,0 -1.97656,0.84375 -0.71875,0.83593 -0.71875,2.46093 0,1.57813 0.70312,2.42969 0.71094,0.84375 1.99219,0.84375 0.44531,0 0.90625,-0.11719 0.46094,-0.11718 0.82813,-0.30468 0.32031,-0.16407 0.60156,-0.34375 0.28125,-0.1875 0.44531,-0.32032 h 0.0781 z"
     id="path1001"
     style="fill:#000000" /><path
     d="m 143.71172,227.94881 h -1.46875 v -0.96875 q -0.74218,0.58593 -1.42187,0.89843 -0.67969,0.3125 -1.5,0.3125 -1.375,0 -2.14063,-0.83593 -0.76562,-0.84375 -0.76562,-2.46875 v -5.66407 h 1.46875 v 4.96875 q 0,0.66407 0.0625,1.14063 0.0625,0.46875 0.26562,0.80469 0.21094,0.34375 0.54688,0.5 0.33594,0.15625 0.97656,0.15625 0.57031,0 1.24219,-0.29688 0.67969,-0.29687 1.26562,-0.75781 v -6.51563 h 1.46875 z"
     id="path1003"
     style="fill:#000000" /><path
     d="m 159.33672,227.94881 h -1.46875 v -4.96875 q 0,-0.5625 -0.0547,-1.08594 -0.0469,-0.52344 -0.21094,-0.83594 -0.17969,-0.33594 -0.51563,-0.50781 -0.33593,-0.17188 -0.96875,-0.17188 -0.61718,0 -1.23437,0.3125 -0.61719,0.30469 -1.23438,0.78125 0.0234,0.17969 0.0391,0.42188 0.0156,0.23437 0.0156,0.46875 v 5.58594 h -1.46875 v -4.96875 q 0,-0.57813 -0.0547,-1.09375 -0.0469,-0.52344 -0.21093,-0.83594 -0.17969,-0.33594 -0.51563,-0.5 -0.33594,-0.17188 -0.96875,-0.17188 -0.60156,0 -1.21094,0.29688 -0.60156,0.29687 -1.20312,0.75781 v 6.51563 h -1.46875 v -8.72657 h 1.46875 v 0.96875 q 0.6875,-0.57031 1.36719,-0.89062 0.6875,-0.32031 1.46093,-0.32031 0.89063,0 1.50782,0.375 0.625,0.375 0.92968,1.03906 0.89063,-0.75 1.625,-1.07813 0.73438,-0.33593 1.57032,-0.33593 1.4375,0 2.11718,0.875 0.6875,0.86718 0.6875,2.42968 z"
     id="path1005"
     style="fill:#000000" /><path
     d="m 169.46954,223.73787 h -6.42969 q 0,0.80469 0.24219,1.40625 0.24218,0.59375 0.66406,0.97656 0.40625,0.375 0.96094,0.5625 0.5625,0.1875 1.23437,0.1875 0.89063,0 1.78906,-0.35156 0.90625,-0.35938 1.28907,-0.70313 h 0.0781 v 1.60157 q -0.74219,0.3125 -1.51562,0.52343 -0.77344,0.21094 -1.625,0.21094 -2.17188,0 -3.39063,-1.17187 -1.21875,-1.17969 -1.21875,-3.34375 0,-2.14063 1.16406,-3.39844 1.17188,-1.25781 3.07813,-1.25781 1.76562,0 2.71875,1.03125 0.96094,1.03125 0.96094,2.92968 z m -1.42969,-1.125 q -0.008,-1.15625 -0.58594,-1.78906 -0.57031,-0.63282 -1.74219,-0.63282 -1.17968,0 -1.88281,0.69532 -0.69531,0.69531 -0.78906,1.72656 z"
     id="path1007"
     style="fill:#000000" /><path
     d="m 178.99297,227.94881 h -1.46875 v -4.96875 q 0,-0.60157 -0.0703,-1.125 -0.0703,-0.53125 -0.25781,-0.82813 -0.19531,-0.32812 -0.5625,-0.48437 -0.36719,-0.16407 -0.95313,-0.16407 -0.60156,0 -1.25781,0.29688 -0.65625,0.29687 -1.25781,0.75781 v 6.51563 h -1.46875 v -8.72657 h 1.46875 v 0.96875 q 0.6875,-0.57031 1.42187,-0.89062 0.73438,-0.32031 1.50782,-0.32031 1.41406,0 2.15625,0.85156 0.74218,0.85156 0.74218,2.45312 z"
     id="path1009"
     style="fill:#000000" /><path
     d="m 186.35235,227.87068 q -0.41406,0.10938 -0.90625,0.17969 -0.48438,0.0703 -0.86719,0.0703 -1.33594,0 -2.03125,-0.71875 -0.69531,-0.71875 -0.69531,-2.30469 v -4.64062 h -0.99219 v -1.23438 h 0.99219 v -2.50781 h 1.46875 v 2.50781 h 3.03125 v 1.23438 h -3.03125 v 3.97656 q 0,0.6875 0.0312,1.07813 0.0312,0.38281 0.21875,0.71875 0.17187,0.3125 0.46875,0.46093 0.30469,0.14063 0.92187,0.14063 0.35938,0 0.75,-0.10156 0.39063,-0.10938 0.5625,-0.17969 h 0.0781 z"
     id="path1011"
     style="fill:#000000" /><path
     d="m 195.56329,223.58943 q 0,2.13281 -1.09375,3.36719 -1.09375,1.23437 -2.92969,1.23437 -1.85156,0 -2.94531,-1.23437 -1.08594,-1.23438 -1.08594,-3.36719 0,-2.13281 1.08594,-3.36719 1.09375,-1.24218 2.94531,-1.24218 1.83594,0 2.92969,1.24218 1.09375,1.23438 1.09375,3.36719 z m -1.51563,0 q 0,-1.69531 -0.66406,-2.51562 -0.66406,-0.82813 -1.84375,-0.82813 -1.19531,0 -1.85938,0.82813 -0.65625,0.82031 -0.65625,2.51562 0,1.64063 0.66407,2.49219 0.66406,0.84375 1.85156,0.84375 1.17187,0 1.83594,-0.83594 0.67187,-0.84375 0.67187,-2.5 z"
     id="path1013"
     style="fill:#000000" /><path
     d="m 210.53985,227.94881 h -1.46875 v -0.91407 q -0.63281,0.54688 -1.32031,0.85157 -0.6875,0.30468 -1.49219,0.30468 -1.5625,0 -2.48438,-1.20312 -0.91406,-1.20313 -0.91406,-3.33594 0,-1.10937 0.3125,-1.97656 0.32031,-0.86719 0.85938,-1.47656 0.53125,-0.59375 1.23437,-0.90625 0.71094,-0.3125 1.46875,-0.3125 0.6875,0 1.21875,0.14843 0.53125,0.14063 1.11719,0.44532 v -3.78125 h 1.46875 z m -1.46875,-2.14844 v -5.00781 q -0.59375,-0.26563 -1.0625,-0.36719 -0.46875,-0.10156 -1.02344,-0.10156 -1.23437,0 -1.92187,0.85937 -0.6875,0.85938 -0.6875,2.4375 0,1.55469 0.53125,2.36719 0.53125,0.80469 1.70312,0.80469 0.625,0 1.26563,-0.27344 0.64062,-0.28125 1.19531,-0.71875 z"
     id="path1015"
     style="fill:#000000" /><path
     d="m 220.73516,223.73787 h -6.42969 q 0,0.80469 0.24219,1.40625 0.24219,0.59375 0.66406,0.97656 0.40625,0.375 0.96094,0.5625 0.5625,0.1875 1.23438,0.1875 0.89062,0 1.78906,-0.35156 0.90625,-0.35938 1.28906,-0.70313 h 0.0781 v 1.60157 q -0.74219,0.3125 -1.51563,0.52343 -0.77344,0.21094 -1.625,0.21094 -2.17187,0 -3.39062,-1.17187 -1.21875,-1.17969 -1.21875,-3.34375 0,-2.14063 1.16406,-3.39844 1.17187,-1.25781 3.07812,-1.25781 1.76563,0 2.71875,1.03125 0.96094,1.03125 0.96094,2.92968 z m -1.42969,-1.125 q -0.008,-1.15625 -0.58593,-1.78906 -0.57032,-0.63282 -1.74219,-0.63282 -1.17969,0 -1.88281,0.69532 -0.69532,0.69531 -0.78907,1.72656 z"
     id="path1017"
     style="fill:#000000" /><path
     d="m 230.16485,217.76131 h -1.65625 v -1.52344 h 1.65625 z m -0.0937,10.1875 h -1.46875 v -8.72657 h 1.46875 z"
     id="path1019"
     style="fill:#000000" /><path
     d="m 240.05547,227.94881 h -1.46875 v -0.91407 q -0.63281,0.54688 -1.32031,0.85157 -0.6875,0.30468 -1.49219,0.30468 -1.5625,0 -2.48437,-1.20312 -0.91406,-1.20313 -0.91406,-3.33594 0,-1.10937 0.3125,-1.97656 0.32031,-0.86719 0.85937,-1.47656 0.53125,-0.59375 1.23438,-0.90625 0.71093,-0.3125 1.46875,-0.3125 0.6875,0 1.21875,0.14843 0.53125,0.14063 1.11718,0.44532 v -3.78125 h 1.46875 z m -1.46875,-2.14844 v -5.00781 q -0.59375,-0.26563 -1.0625,-0.36719 -0.46875,-0.10156 -1.02343,-0.10156 -1.23438,0 -1.92188,0.85937 -0.6875,0.85938 -0.6875,2.4375 0,1.55469 0.53125,2.36719 0.53125,0.80469 1.70313,0.80469 0.625,0 1.26562,-0.27344 0.64063,-0.28125 1.19531,-0.71875 z"
     id="path1021"
     style="fill:#000000" /><path
     d="m 250.25079,223.73787 h -6.42969 q 0,0.80469 0.24219,1.40625 0.24218,0.59375 0.66406,0.97656 0.40625,0.375 0.96094,0.5625 0.5625,0.1875 1.23437,0.1875 0.89063,0 1.78906,-0.35156 0.90625,-0.35938 1.28907,-0.70313 h 0.0781 v 1.60157 q -0.74219,0.3125 -1.51562,0.52343 -0.77344,0.21094 -1.625,0.21094 -2.17188,0 -3.39063,-1.17187 -1.21875,-1.17969 -1.21875,-3.34375 0,-2.14063 1.16406,-3.39844 1.17188,-1.25781 3.07813,-1.25781 1.76562,0 2.71875,1.03125 0.96094,1.03125 0.96094,2.92968 z m -1.42969,-1.125 q -0.008,-1.15625 -0.58594,-1.78906 -0.57031,-0.63282 -1.74219,-0.63282 -1.17968,0 -1.88281,0.69532 -0.69531,0.69531 -0.78906,1.72656 z"
     id="path1023"
     style="fill:#000000" /><path
     d="m 259.77422,227.94881 h -1.46875 v -4.96875 q 0,-0.60157 -0.0703,-1.125 -0.0703,-0.53125 -0.25781,-0.82813 -0.19531,-0.32812 -0.5625,-0.48437 -0.36719,-0.16407 -0.95313,-0.16407 -0.60156,0 -1.25781,0.29688 -0.65625,0.29687 -1.25781,0.75781 v 6.51563 h -1.46875 v -8.72657 h 1.46875 v 0.96875 q 0.6875,-0.57031 1.42187,-0.89062 0.73438,-0.32031 1.50782,-0.32031 1.41406,0 2.15625,0.85156 0.74218,0.85156 0.74218,2.45312 z"
     id="path1025"
     style="fill:#000000" /><path
     d="m 267.1336,227.87068 q -0.41406,0.10938 -0.90625,0.17969 -0.48438,0.0703 -0.86719,0.0703 -1.33594,0 -2.03125,-0.71875 -0.69531,-0.71875 -0.69531,-2.30469 v -4.64062 h -0.99219 v -1.23438 h 0.99219 v -2.50781 h 1.46875 v 2.50781 h 3.03125 v 1.23438 h -3.03125 v 3.97656 q 0,0.6875 0.0312,1.07813 0.0312,0.38281 0.21875,0.71875 0.17187,0.3125 0.46875,0.46093 0.30469,0.14063 0.92187,0.14063 0.35938,0 0.75,-0.10156 0.39063,-0.10938 0.5625,-0.17969 h 0.0781 z"
     id="path1027"
     style="fill:#000000" /><path
     d="m 270.48516,217.76131 h -1.65625 v -1.52344 h 1.65625 z m -0.0937,10.1875 h -1.46875 v -8.72657 h 1.46875 z"
     id="path1029"
     style="fill:#000000" /><path
     d="m 280.37579,227.94881 h -1.46875 v -0.91407 q -0.63282,0.54688 -1.32032,0.85157 -0.6875,0.30468 -1.49218,0.30468 -1.5625,0 -2.48438,-1.20312 -0.91406,-1.20313 -0.91406,-3.33594 0,-1.10937 0.3125,-1.97656 0.32031,-0.86719 0.85937,-1.47656 0.53125,-0.59375 1.23438,-0.90625 0.71094,-0.3125 1.46875,-0.3125 0.6875,0 1.21875,0.14843 0.53125,0.14063 1.11719,0.44532 v -3.78125 h 1.46875 z m -1.46875,-2.14844 v -5.00781 q -0.59375,-0.26563 -1.0625,-0.36719 -0.46875,-0.10156 -1.02344,-0.10156 -1.23438,0 -1.92188,0.85937 -0.6875,0.85938 -0.6875,2.4375 0,1.55469 0.53125,2.36719 0.53125,0.80469 1.70313,0.80469 0.625,0 1.26562,-0.27344 0.64063,-0.28125 1.19532,-0.71875 z"
     id="path1031"
     style="fill:#000000" /><path
     d="m 290.04766,227.94881 h -1.46094 v -0.92969 q -0.19531,0.13281 -0.53125,0.375 -0.32812,0.23437 -0.64062,0.375 -0.36719,0.17969 -0.84375,0.29687 -0.47656,0.125 -1.11719,0.125 -1.17969,0 -2,-0.78125 -0.82031,-0.78125 -0.82031,-1.99218 0,-0.99219 0.42187,-1.60157 0.42969,-0.61718 1.21875,-0.96875 0.79688,-0.35156 1.91407,-0.47656 1.11718,-0.125 2.39843,-0.1875 v -0.22656 q 0,-0.5 -0.17968,-0.82813 -0.17188,-0.32812 -0.5,-0.51562 -0.3125,-0.17969 -0.75,-0.24219 -0.4375,-0.0625 -0.91407,-0.0625 -0.57812,0 -1.28906,0.15625 -0.71094,0.14844 -1.46875,0.4375 h -0.0781 v -1.49219 q 0.42968,-0.11718 1.24218,-0.25781 0.8125,-0.14062 1.60157,-0.14062 0.92187,0 1.60156,0.15625 0.6875,0.14843 1.1875,0.51562 0.49219,0.35938 0.75,0.92969 0.25781,0.57031 0.25781,1.41406 z m -1.46094,-2.14844 v -2.42969 q -0.67187,0.0391 -1.58593,0.11719 -0.90625,0.0781 -1.4375,0.22656 -0.63282,0.17969 -1.02344,0.5625 -0.39063,0.375 -0.39063,1.03906 0,0.75 0.45313,1.13282 0.45312,0.375 1.38281,0.375 0.77344,0 1.41406,-0.29688 0.64063,-0.30469 1.1875,-0.72656 z"
     id="path1033"
     style="fill:#000000" /><path
     d="m 299.95391,227.94881 h -1.46875 v -0.91407 q -0.63281,0.54688 -1.32031,0.85157 -0.6875,0.30468 -1.49219,0.30468 -1.5625,0 -2.48437,-1.20312 -0.91407,-1.20313 -0.91407,-3.33594 0,-1.10937 0.3125,-1.97656 0.32032,-0.86719 0.85938,-1.47656 0.53125,-0.59375 1.23437,-0.90625 0.71094,-0.3125 1.46875,-0.3125 0.6875,0 1.21875,0.14843 0.53125,0.14063 1.11719,0.44532 v -3.78125 h 1.46875 z m -1.46875,-2.14844 v -5.00781 q -0.59375,-0.26563 -1.0625,-0.36719 -0.46875,-0.10156 -1.02344,-0.10156 -1.23437,0 -1.92187,0.85937 -0.6875,0.85938 -0.6875,2.4375 0,1.55469 0.53125,2.36719 0.53125,0.80469 1.70312,0.80469 0.625,0 1.26563,-0.27344 0.64062,-0.28125 1.19531,-0.71875 z"
     id="path1035"
     style="fill:#000000" /><path
     d="m 305.96954,221.44881 h -1.86719 v -2.22657 h 1.86719 z m 0,6.5 h -1.86719 v -2.22657 h 1.86719 z"
     id="path1037"
     style="fill:#000000" /><path
     d="m 80.930473,247.10506 q -0.429687,0.1875 -0.78125,0.35156 -0.34375,0.16406 -0.90625,0.34375 -0.476562,0.14844 -1.039062,0.25 -0.554688,0.10937 -1.226563,0.10937 -1.265625,0 -2.304687,-0.35156 -1.03125,-0.35937 -1.796875,-1.11719 -0.75,-0.74218 -1.171875,-1.88281 -0.421875,-1.14844 -0.421875,-2.66406 0,-1.4375 0.40625,-2.57031 0.40625,-1.13282 1.171875,-1.91407 0.742187,-0.75781 1.789062,-1.15625 1.054688,-0.39843 2.335938,-0.39843 0.9375,0 1.867187,0.22656 0.9375,0.22656 2.078125,0.79687 v 1.83594 h -0.117187 q -0.960938,-0.80469 -1.90625,-1.17187 -0.945313,-0.36719 -2.023438,-0.36719 -0.882812,0 -1.59375,0.28906 -0.703125,0.28125 -1.257812,0.88281 -0.539063,0.58594 -0.84375,1.48438 -0.296875,0.89062 -0.296875,2.0625 0,1.22656 0.328125,2.10937 0.335937,0.88282 0.859375,1.4375 0.546875,0.57813 1.273437,0.85938 0.734375,0.27344 1.546875,0.27344 1.117188,0 2.09375,-0.38282 0.976563,-0.38281 1.828125,-1.14843 h 0.109375 z"
     id="path1039"
     style="fill:#000000" /><path
     d="m 90.235161,247.94881 h -1.46875 v -0.96875 q -0.742188,0.58593 -1.421875,0.89843 -0.679688,0.3125 -1.5,0.3125 -1.375,0 -2.140625,-0.83593 -0.765625,-0.84375 -0.765625,-2.46875 v -5.66407 h 1.46875 v 4.96875 q 0,0.66407 0.0625,1.14063 0.0625,0.46875 0.265625,0.80469 0.210937,0.34375 0.546875,0.5 0.335937,0.15625 0.976562,0.15625 0.570313,0 1.242188,-0.29688 0.679687,-0.29687 1.265625,-0.75781 v -6.51563 h 1.46875 z"
     id="path1041"
     style="fill:#000000" /><path
     d="m 98.571098,240.82381 h -0.07813 q -0.328125,-0.0781 -0.640625,-0.10938 -0.304687,-0.0391 -0.726562,-0.0391 -0.679688,0 -1.3125,0.30469 -0.632813,0.29687 -1.21875,0.77343 v 6.19532 h -1.46875 v -8.72657 h 1.46875 v 1.28907 q 0.875,-0.70313 1.539062,-0.99219 0.671875,-0.29688 1.367188,-0.29688 0.382812,0 0.554687,0.0234 0.171875,0.0156 0.515625,0.0703 z"
     id="path1043"
     style="fill:#000000" /><path
     d="m 106.18829,245.43318 q 0,1.19531 -0.99219,1.96094 -0.98438,0.76562 -2.69531,0.76562 -0.96875,0 -1.78125,-0.22656 -0.804692,-0.23437 -1.351567,-0.50781 v -1.64844 h 0.07813 q 0.695307,0.52344 1.546867,0.83594 0.85157,0.30469 1.63282,0.30469 0.96875,0 1.51562,-0.3125 0.54688,-0.3125 0.54688,-0.98438 0,-0.51562 -0.29688,-0.78125 -0.29687,-0.26562 -1.14062,-0.45312 -0.3125,-0.0703 -0.82032,-0.16407 -0.5,-0.0937 -0.91406,-0.20312 -1.14844,-0.30469 -1.632807,-0.89063 -0.476562,-0.59375 -0.476562,-1.45312 0,-0.53906 0.21875,-1.01563 0.226562,-0.47656 0.679679,-0.85156 0.4375,-0.36719 1.10938,-0.57812 0.67969,-0.21875 1.51562,-0.21875 0.78125,0 1.57813,0.19531 0.80469,0.1875 1.33594,0.46094 v 1.57031 h -0.0781 q -0.5625,-0.41406 -1.36719,-0.69531 -0.80468,-0.28907 -1.57812,-0.28907 -0.80469,0 -1.35938,0.3125 -0.55468,0.30469 -0.55468,0.91407 0,0.53906 0.33593,0.8125 0.32813,0.27343 1.0625,0.44531 0.40625,0.0937 0.90625,0.1875 0.50782,0.0937 0.84375,0.17187 1.02344,0.23438 1.57813,0.80469 0.55469,0.57813 0.55469,1.53125 z"
     id="path1045"
     style="fill:#000000" /><path
     d="m 115.72735,243.58943 q 0,2.13281 -1.09375,3.36719 -1.09375,1.23437 -2.92969,1.23437 -1.85156,0 -2.94531,-1.23437 -1.08594,-1.23438 -1.08594,-3.36719 0,-2.13281 1.08594,-3.36719 1.09375,-1.24218 2.94531,-1.24218 1.83594,0 2.92969,1.24218 1.09375,1.23438 1.09375,3.36719 z m -1.51563,0 q 0,-1.69531 -0.66406,-2.51562 -0.66406,-0.82813 -1.84375,-0.82813 -1.19531,0 -1.85937,0.82813 -0.65625,0.82031 -0.65625,2.51562 0,1.64063 0.66406,2.49219 0.66406,0.84375 1.85156,0.84375 1.17188,0 1.83594,-0.83594 0.67187,-0.84375 0.67187,-2.5 z m -0.0781,-8.73437 -2.13281,2.92187 h -1.16407 l 1.39844,-2.92187 z"
     id="path1047"
     style="fill:#000000" /><path
     d="m 131.17266,239.22224 -5.09375,11.94532 h -1.57031 l 1.625,-3.64063 -3.47656,-8.30469 h 1.59375 l 2.67968,6.46875 2.70313,-6.46875 z"
     id="path1049"
     style="fill:#000000" /><path
     d="m 145.50079,247.94881 h -1.46094 v -0.92969 q -0.19531,0.13281 -0.53125,0.375 -0.32813,0.23437 -0.64063,0.375 -0.36718,0.17969 -0.84375,0.29687 -0.47656,0.125 -1.11718,0.125 -1.17969,0 -2,-0.78125 -0.82032,-0.78125 -0.82032,-1.99218 0,-0.99219 0.42188,-1.60157 0.42969,-0.61718 1.21875,-0.96875 0.79687,-0.35156 1.91406,-0.47656 1.11719,-0.125 2.39844,-0.1875 v -0.22656 q 0,-0.5 -0.17969,-0.82813 -0.17187,-0.32812 -0.5,-0.51562 -0.3125,-0.17969 -0.75,-0.24219 -0.4375,-0.0625 -0.91406,-0.0625 -0.57813,0 -1.28906,0.15625 -0.71094,0.14844 -1.46875,0.4375 h -0.0781 v -1.49219 q 0.42969,-0.11718 1.24219,-0.25781 0.8125,-0.14062 1.60156,-0.14062 0.92188,0 1.60156,0.15625 0.6875,0.14843 1.1875,0.51562 0.49219,0.35938 0.75,0.92969 0.25782,0.57031 0.25782,1.41406 z m -1.46094,-2.14844 v -2.42969 q -0.67188,0.0391 -1.58594,0.11719 -0.90625,0.0781 -1.4375,0.22656 -0.63281,0.17969 -1.02344,0.5625 -0.39062,0.375 -0.39062,1.03906 0,0.75 0.45312,1.13282 0.45313,0.375 1.38282,0.375 0.77343,0 1.41406,-0.29688 0.64062,-0.30469 1.1875,-0.72656 z"
     id="path1051"
     style="fill:#000000" /><path
     d="m 156.0086,243.48006 q 0,1.0625 -0.30469,1.94531 -0.30469,0.875 -0.85937,1.48437 -0.51563,0.57813 -1.21875,0.89844 -0.69532,0.3125 -1.47657,0.3125 -0.67968,0 -1.23437,-0.14844 -0.54688,-0.14843 -1.11719,-0.46093 v 3.65625 h -1.46875 v -11.94532 h 1.46875 v 0.91407 q 0.58594,-0.49219 1.3125,-0.82032 0.73438,-0.33593 1.5625,-0.33593 1.57813,0 2.45313,1.19531 0.88281,1.1875 0.88281,3.30469 z m -1.51563,0.0391 q 0,-1.57813 -0.53906,-2.35938 -0.53906,-0.78125 -1.65625,-0.78125 -0.63281,0 -1.27344,0.27344 -0.64062,0.27344 -1.22656,0.71875 v 4.94531 q 0.625,0.28125 1.07031,0.38282 0.45313,0.10156 1.02344,0.10156 1.22656,0 1.91406,-0.82813 0.6875,-0.82812 0.6875,-2.45312 z"
     id="path1053"
     style="fill:#000000" /><path
     d="m 163.74297,240.82381 h -0.0781 q -0.32813,-0.0781 -0.64063,-0.10938 -0.30468,-0.0391 -0.72656,-0.0391 -0.67969,0 -1.3125,0.30469 -0.63281,0.29687 -1.21875,0.77343 v 6.19532 h -1.46875 v -8.72657 h 1.46875 v 1.28907 q 0.875,-0.70313 1.53906,-0.99219 0.67188,-0.29688 1.36719,-0.29688 0.38281,0 0.55469,0.0234 0.17187,0.0156 0.51562,0.0703 z"
     id="path1055"
     style="fill:#000000" /><path
     d="m 172.56329,243.58943 q 0,2.13281 -1.09375,3.36719 -1.09375,1.23437 -2.92969,1.23437 -1.85156,0 -2.94531,-1.23437 -1.08594,-1.23438 -1.08594,-3.36719 0,-2.13281 1.08594,-3.36719 1.09375,-1.24218 2.94531,-1.24218 1.83594,0 2.92969,1.24218 1.09375,1.23438 1.09375,3.36719 z m -1.51563,0 q 0,-1.69531 -0.66406,-2.51562 -0.66406,-0.82813 -1.84375,-0.82813 -1.19531,0 -1.85938,0.82813 -0.65625,0.82031 -0.65625,2.51562 0,1.64063 0.66407,2.49219 0.66406,0.84375 1.85156,0.84375 1.17187,0 1.83594,-0.83594 0.67187,-0.84375 0.67187,-2.5 z"
     id="path1057"
     style="fill:#000000" /><path
     d="m 182.51641,243.51912 q 0,1.09375 -0.3125,1.96875 -0.30469,0.875 -0.82812,1.46875 -0.55469,0.61719 -1.21875,0.92969 -0.66407,0.30468 -1.46094,0.30468 -0.74219,0 -1.29688,-0.17968 -0.55468,-0.17188 -1.09375,-0.46875 l -0.0937,0.40625 h -1.375 v -12.15625 h 1.46875 v 4.34375 q 0.61719,-0.50782 1.3125,-0.82813 0.69532,-0.32812 1.5625,-0.32812 1.54688,0 2.4375,1.1875 0.89844,1.1875 0.89844,3.35156 z m -1.51562,0.0391 q 0,-1.5625 -0.51563,-2.36719 -0.51562,-0.8125 -1.66406,-0.8125 -0.64063,0 -1.29688,0.28125 -0.65625,0.27344 -1.21875,0.71094 v 5 q 0.625,0.28125 1.07032,0.39063 0.45312,0.10937 1.02343,0.10937 1.21875,0 1.90625,-0.79687 0.69532,-0.80469 0.69532,-2.51563 z"
     id="path1059"
     style="fill:#000000" /><path
     d="m 192.24297,243.58943 q 0,2.13281 -1.09375,3.36719 -1.09375,1.23437 -2.92968,1.23437 -1.85157,0 -2.94532,-1.23437 -1.08593,-1.23438 -1.08593,-3.36719 0,-2.13281 1.08593,-3.36719 1.09375,-1.24218 2.94532,-1.24218 1.83593,0 2.92968,1.24218 1.09375,1.23438 1.09375,3.36719 z m -1.51562,0 q 0,-1.69531 -0.66406,-2.51562 -0.66407,-0.82813 -1.84375,-0.82813 -1.19532,0 -1.85938,0.82813 -0.65625,0.82031 -0.65625,2.51562 0,1.64063 0.66406,2.49219 0.66407,0.84375 1.85157,0.84375 1.17187,0 1.83593,-0.83594 0.67188,-0.84375 0.67188,-2.5 z m -0.0781,-8.73437 -2.13281,2.92187 h -1.16406 l 1.39844,-2.92187 z"
     id="path1061"
     style="fill:#000000" /><path
     d="m 207.4461,243.73787 h -6.42969 q 0,0.80469 0.24219,1.40625 0.24219,0.59375 0.66406,0.97656 0.40625,0.375 0.96094,0.5625 0.5625,0.1875 1.23437,0.1875 0.89063,0 1.78907,-0.35156 0.90625,-0.35938 1.28906,-0.70313 h 0.0781 v 1.60157 q -0.74218,0.3125 -1.51562,0.52343 -0.77344,0.21094 -1.625,0.21094 -2.17188,0 -3.39063,-1.17187 -1.21875,-1.17969 -1.21875,-3.34375 0,-2.14063 1.16407,-3.39844 1.17187,-1.25781 3.07812,-1.25781 1.76563,0 2.71875,1.03125 0.96094,1.03125 0.96094,2.92968 z m -1.42969,-1.125 q -0.008,-1.15625 -0.58594,-1.78906 -0.57031,-0.63282 -1.74218,-0.63282 -1.17969,0 -1.88282,0.69532 -0.69531,0.69531 -0.78906,1.72656 z"
     id="path1063"
     style="fill:#000000" /><path
     d="m 211.15704,247.94881 h -1.46875 v -12.15625 h 1.46875 z"
     id="path1065"
     style="fill:#000000" /><path
     d="m 226.14141,247.40193 q -0.73437,0.35156 -1.39844,0.54688 -0.65625,0.19531 -1.39843,0.19531 -0.94532,0 -1.73438,-0.27344 -0.78906,-0.28125 -1.35156,-0.84375 -0.57031,-0.5625 -0.88281,-1.42187 -0.3125,-0.85938 -0.3125,-2.00782 0,-2.14062 1.17187,-3.35937 1.17969,-1.21875 3.10938,-1.21875 0.75,0 1.46875,0.21094 0.72656,0.21093 1.32812,0.51562 v 1.63281 h -0.0781 q -0.67188,-0.52343 -1.39063,-0.80468 -0.71094,-0.28125 -1.39062,-0.28125 -1.25,0 -1.97657,0.84375 -0.71875,0.83593 -0.71875,2.46093 0,1.57813 0.70313,2.42969 0.71094,0.84375 1.99219,0.84375 0.44531,0 0.90625,-0.11719 0.46093,-0.11718 0.82812,-0.30468 0.32031,-0.16407 0.60156,-0.34375 0.28125,-0.1875 0.44532,-0.32032 h 0.0781 z"
     id="path1067"
     style="fill:#000000" /><path
     d="m 235.2586,247.94881 h -1.46875 v -0.96875 q -0.74219,0.58593 -1.42188,0.89843 -0.67968,0.3125 -1.5,0.3125 -1.375,0 -2.14062,-0.83593 -0.76563,-0.84375 -0.76563,-2.46875 v -5.66407 h 1.46875 v 4.96875 q 0,0.66407 0.0625,1.14063 0.0625,0.46875 0.26563,0.80469 0.21094,0.34375 0.54687,0.5 0.33594,0.15625 0.97657,0.15625 0.57031,0 1.24218,-0.29688 0.67969,-0.29687 1.26563,-0.75781 v -6.51563 h 1.46875 z"
     id="path1069"
     style="fill:#000000" /><path
     d="m 243.59454,240.82381 h -0.0781 q -0.32812,-0.0781 -0.64062,-0.10938 -0.30469,-0.0391 -0.72657,-0.0391 -0.67968,0 -1.3125,0.30469 -0.63281,0.29687 -1.21875,0.77343 v 6.19532 h -1.46875 v -8.72657 h 1.46875 v 1.28907 q 0.875,-0.70313 1.53907,-0.99219 0.67187,-0.29688 1.36718,-0.29688 0.38282,0 0.55469,0.0234 0.17188,0.0156 0.51563,0.0703 z"
     id="path1071"
     style="fill:#000000" /><path
     d="m 251.21172,245.43318 q 0,1.19531 -0.99218,1.96094 -0.98438,0.76562 -2.69532,0.76562 -0.96875,0 -1.78125,-0.22656 -0.80468,-0.23437 -1.35156,-0.50781 v -1.64844 h 0.0781 q 0.69531,0.52344 1.54687,0.83594 0.85156,0.30469 1.63281,0.30469 0.96875,0 1.51563,-0.3125 0.54687,-0.3125 0.54687,-0.98438 0,-0.51562 -0.29687,-0.78125 -0.29688,-0.26562 -1.14063,-0.45312 -0.3125,-0.0703 -0.82031,-0.16407 -0.5,-0.0937 -0.91406,-0.20312 -1.14844,-0.30469 -1.63281,-0.89063 -0.47657,-0.59375 -0.47657,-1.45312 0,-0.53906 0.21875,-1.01563 0.22657,-0.47656 0.67969,-0.85156 0.4375,-0.36719 1.10938,-0.57812 0.67968,-0.21875 1.51562,-0.21875 0.78125,0 1.57813,0.19531 0.80468,0.1875 1.33593,0.46094 v 1.57031 h -0.0781 q -0.5625,-0.41406 -1.36719,-0.69531 -0.80469,-0.28907 -1.57812,-0.28907 -0.80469,0 -1.35938,0.3125 -0.55469,0.30469 -0.55469,0.91407 0,0.53906 0.33594,0.8125 0.32813,0.27343 1.0625,0.44531 0.40625,0.0937 0.90625,0.1875 0.50781,0.0937 0.84375,0.17187 1.02344,0.23438 1.57813,0.80469 0.55468,0.57813 0.55468,1.53125 z"
     id="path1073"
     style="fill:#000000" /><path
     d="m 260.75079,243.58943 q 0,2.13281 -1.09375,3.36719 -1.09375,1.23437 -2.92969,1.23437 -1.85156,0 -2.94531,-1.23437 -1.08594,-1.23438 -1.08594,-3.36719 0,-2.13281 1.08594,-3.36719 1.09375,-1.24218 2.94531,-1.24218 1.83594,0 2.92969,1.24218 1.09375,1.23438 1.09375,3.36719 z m -1.51563,0 q 0,-1.69531 -0.66406,-2.51562 -0.66406,-0.82813 -1.84375,-0.82813 -1.19531,0 -1.85938,0.82813 -0.65625,0.82031 -0.65625,2.51562 0,1.64063 0.66407,2.49219 0.66406,0.84375 1.85156,0.84375 1.17187,0 1.83594,-0.83594 0.67187,-0.84375 0.67187,-2.5 z"
     id="path1075"
     style="fill:#000000" /><path
     d="m 275.72735,247.94881 h -1.46875 v -0.91407 q -0.63281,0.54688 -1.32031,0.85157 -0.6875,0.30468 -1.49219,0.30468 -1.5625,0 -2.48438,-1.20312 -0.91406,-1.20313 -0.91406,-3.33594 0,-1.10937 0.3125,-1.97656 0.32031,-0.86719 0.85938,-1.47656 0.53125,-0.59375 1.23437,-0.90625 0.71094,-0.3125 1.46875,-0.3125 0.6875,0 1.21875,0.14843 0.53125,0.14063 1.11719,0.44532 v -3.78125 h 1.46875 z m -1.46875,-2.14844 v -5.00781 q -0.59375,-0.26563 -1.0625,-0.36719 -0.46875,-0.10156 -1.02344,-0.10156 -1.23437,0 -1.92187,0.85937 -0.6875,0.85938 -0.6875,2.4375 0,1.55469 0.53125,2.36719 0.53125,0.80469 1.70312,0.80469 0.625,0 1.26563,-0.27344 0.64062,-0.28125 1.19531,-0.71875 z"
     id="path1077"
     style="fill:#000000" /><path
     d="m 285.92266,243.73787 h -6.42969 q 0,0.80469 0.24219,1.40625 0.24219,0.59375 0.66406,0.97656 0.40625,0.375 0.96094,0.5625 0.5625,0.1875 1.23438,0.1875 0.89062,0 1.78906,-0.35156 0.90625,-0.35938 1.28906,-0.70313 h 0.0781 v 1.60157 q -0.74219,0.3125 -1.51563,0.52343 -0.77344,0.21094 -1.625,0.21094 -2.17187,0 -3.39062,-1.17187 -1.21875,-1.17969 -1.21875,-3.34375 0,-2.14063 1.16406,-3.39844 1.17187,-1.25781 3.07812,-1.25781 1.76563,0 2.71875,1.03125 0.96094,1.03125 0.96094,2.92968 z m -1.42969,-1.125 q -0.008,-1.15625 -0.58593,-1.78906 -0.57032,-0.63282 -1.74219,-0.63282 -1.17969,0 -1.88281,0.69532 -0.69532,0.69531 -0.78907,1.72656 z"
     id="path1079"
     style="fill:#000000" /></g>
   </g><g
     id="g985"
     transform="translate(11.291582,196.09371)"
     style="fill:#000000">
     <text
   id="text983"
   style="font-size:16px;fill:#000000"
   x="296.06329"
   y="227.94881"><tspan
     sodipodi:role="line"
     x="296.06329"
     y="227.94881"
     id="tspan981"
     style="font-size:16px;fill:#000000">{{ estudiante.id_estudiante }}</tspan></text>
   </g></g><g
   id="g2247"
   transform="translate(-2.0365375,580)"
   style="fill:#000000">
     <g
   aria-label="Código de certificado:"
   id="text2245"
   style="font-size:10.6667px"><path
     d="m 77.414871,189.3863 q -0.28646,0.12501 -0.520835,0.23438 -0.229168,0.10938 -0.604169,0.22917 -0.317709,0.099 -0.692711,0.16667 -0.369792,0.0729 -0.81771,0.0729 -0.843753,0 -1.536464,-0.23437 -0.687502,-0.23959 -1.19792,-0.7448 -0.500002,-0.49479 -0.781253,-1.25521 -0.28125,-0.76563 -0.28125,-1.77605 0,-0.95833 0.270834,-1.71354 0.270834,-0.75521 0.781252,-1.27605 0.494793,-0.50521 1.192712,-0.77084 0.703128,-0.26562 1.557297,-0.26562 0.625002,0 1.244795,0.15104 0.625002,0.15104 1.385422,0.53125 v 1.22396 h -0.07813 q -0.640627,-0.53646 -1.270837,-0.78125 -0.63021,-0.24479 -1.348963,-0.24479 -0.588543,0 -1.062503,0.19271 -0.468751,0.1875 -0.838544,0.58854 -0.359376,0.39063 -0.562502,0.98959 -0.197917,0.59375 -0.197917,1.375 0,0.81771 0.21875,1.40626 0.223959,0.58854 0.572919,0.95833 0.364584,0.38542 0.848961,0.57292 0.489585,0.18229 1.031253,0.18229 0.744794,0 1.395838,-0.2552 0.651044,-0.25521 1.218754,-0.76563 h 0.07292 z"
     id="path2257" /><path
     d="m 83.753432,187.04255 q 0,1.42188 -0.729169,2.2448 -0.729169,0.82292 -1.953131,0.82292 -1.234379,0 -1.963548,-0.82292 -0.72396,-0.82292 -0.72396,-2.2448 0,-1.42188 0.72396,-2.2448 0.729169,-0.82813 1.963548,-0.82813 1.223962,0 1.953131,0.82813 0.729169,0.82292 0.729169,2.2448 z m -1.010419,0 q 0,-1.13021 -0.44271,-1.67709 -0.44271,-0.55209 -1.229171,-0.55209 -0.796877,0 -1.239587,0.55209 -0.437501,0.54688 -0.437501,1.67709 0,1.09375 0.442709,1.66146 0.44271,0.5625 1.234379,0.5625 0.781253,0 1.223962,-0.55729 0.447919,-0.5625 0.447919,-1.66667 z m -0.05208,-5.82294 -1.421879,1.94793 h -0.776045 l 0.932295,-1.94793 z"
     id="path2259" /><path
     d="m 89.987827,189.94881 h -0.97917 v -0.60938 q -0.421876,0.36458 -0.880211,0.56771 -0.458335,0.20313 -0.994795,0.20313 -1.04167,0 -1.656255,-0.80209 -0.609377,-0.80209 -0.609377,-2.22397 0,-0.73958 0.208334,-1.31771 0.213542,-0.57812 0.572918,-0.98438 0.354168,-0.39583 0.82292,-0.60416 0.47396,-0.20834 0.979169,-0.20834 0.458335,0 0.812503,0.099 0.354168,0.0937 0.744794,0.29688 v -2.52085 h 0.97917 z m -0.97917,-1.4323 v -3.33855 q -0.395835,-0.17709 -0.708336,-0.24479 -0.312501,-0.0677 -0.682293,-0.0677 -0.82292,0 -1.281254,0.57292 -0.458335,0.57291 -0.458335,1.625 0,1.03646 0.354168,1.57813 0.354167,0.53646 1.13542,0.53646 0.416668,0 0.843753,-0.18229 0.427084,-0.1875 0.796877,-0.47917 z"
     id="path2261" /><path
     d="m 92.967004,183.15712 h -1.104171 v -1.01563 h 1.104171 z m -0.0625,6.79169 h -0.979169 v -5.81773 h 0.979169 z"
     id="path2263" /><path
     d="m 99.560773,189.28735 q 0,1.47917 -0.671877,2.17188 -0.671877,0.69271 -2.067715,0.69271 -0.463543,0 -0.906252,-0.0677 -0.437502,-0.0625 -0.864587,-0.18229 v -1.00001 h 0.05208 q 0.239584,0.0938 0.760419,0.22917 0.520835,0.14063 1.04167,0.14063 0.500002,0 0.828128,-0.11979 0.328126,-0.1198 0.510418,-0.33334 0.182292,-0.20312 0.260417,-0.48958 0.07813,-0.28646 0.07813,-0.64063 v -0.53125 q -0.44271,0.35417 -0.848961,0.53125 -0.401043,0.17187 -1.026045,0.17187 -1.04167,0 -1.656256,-0.75 -0.609376,-0.75521 -0.609376,-2.125 0,-0.75001 0.208334,-1.29168 0.213542,-0.54687 0.578126,-0.94271 0.338543,-0.36979 0.82292,-0.57291 0.484376,-0.20834 0.963544,-0.20834 0.50521,0 0.843753,0.10417 0.343751,0.099 0.723961,0.30729 l 0.0625,-0.25 h 0.916669 z m -0.979169,-0.93751 v -3.17188 q -0.390627,-0.17709 -0.729169,-0.25 -0.333335,-0.0781 -0.666669,-0.0781 -0.807294,0 -1.270837,0.54167 -0.463544,0.54167 -0.463544,1.57292 0,0.97917 0.343751,1.48438 0.343752,0.50521 1.140629,0.50521 0.427085,0 0.854169,-0.16146 0.432293,-0.16666 0.79167,-0.44271 z"
     id="path2265" /><path
     d="m 106.44621,187.04255 q 0,1.42188 -0.72917,2.2448 -0.72917,0.82292 -1.95313,0.82292 -1.23438,0 -1.96355,-0.82292 -0.72396,-0.82292 -0.72396,-2.2448 0,-1.42188 0.72396,-2.2448 0.72917,-0.82813 1.96355,-0.82813 1.22396,0 1.95313,0.82813 0.72917,0.82292 0.72917,2.2448 z m -1.01042,0 q 0,-1.13021 -0.44271,-1.67709 -0.44271,-0.55209 -1.22917,-0.55209 -0.79688,0 -1.23958,0.55209 -0.43751,0.54688 -0.43751,1.67709 0,1.09375 0.44271,1.66146 0.44271,0.5625 1.23438,0.5625 0.78125,0 1.22396,-0.55729 0.44792,-0.5625 0.44792,-1.66667 z"
     id="path2267" /><path
     d="m 116.43062,189.94881 h -0.97917 v -0.60938 q -0.42188,0.36458 -0.88021,0.56771 -0.45834,0.20313 -0.9948,0.20313 -1.04167,0 -1.65625,-0.80209 -0.60938,-0.80209 -0.60938,-2.22397 0,-0.73958 0.20834,-1.31771 0.21354,-0.57812 0.57291,-0.98438 0.35417,-0.39583 0.82292,-0.60416 0.47396,-0.20834 0.97917,-0.20834 0.45834,0 0.81251,0.099 0.35416,0.0937 0.74479,0.29688 v -2.52085 h 0.97917 z m -0.97917,-1.4323 v -3.33855 q -0.39583,-0.17709 -0.70834,-0.24479 -0.3125,-0.0677 -0.68229,-0.0677 -0.82292,0 -1.28125,0.57292 -0.45834,0.57291 -0.45834,1.625 0,1.03646 0.35417,1.57813 0.35417,0.53646 1.13542,0.53646 0.41667,0 0.84375,-0.18229 0.42709,-0.1875 0.79688,-0.47917 z"
     id="path2269" /><path
     d="m 123.22752,187.14151 h -4.28648 q 0,0.53646 0.16146,0.9375 0.16146,0.39583 0.44271,0.65104 0.27084,0.25 0.64063,0.375 0.375,0.125 0.82292,0.125 0.59375,0 1.19271,-0.23437 0.60417,-0.23959 0.85938,-0.46875 h 0.0521 v 1.06771 q -0.49479,0.20833 -1.01042,0.34896 -0.51562,0.14062 -1.08333,0.14062 -1.44792,0 -2.26043,-0.78125 -0.8125,-0.78646 -0.8125,-2.22917 0,-1.42709 0.77604,-2.26563 0.78126,-0.83855 2.05209,-0.83855 1.17709,0 1.81251,0.6875 0.64063,0.68751 0.64063,1.95313 z m -0.95313,-0.75001 q -0.005,-0.77083 -0.39063,-1.19271 -0.38021,-0.42187 -1.16146,-0.42187 -0.78646,0 -1.25521,0.46354 -0.46354,0.46354 -0.52605,1.15104 z"
     id="path2271" /><path
     d="m 132.76401,189.58422 q -0.48959,0.23438 -0.9323,0.36459 -0.4375,0.13021 -0.93229,0.13021 -0.63021,0 -1.15626,-0.1823 -0.52604,-0.1875 -0.90104,-0.5625 -0.38021,-0.375 -0.58855,-0.94792 -0.20833,-0.57292 -0.20833,-1.33854 0,-1.42709 0.78125,-2.23959 0.78646,-0.81251 2.07293,-0.81251 0.5,0 0.97917,0.14063 0.48437,0.14062 0.88542,0.34375 v 1.08854 h -0.0521 q -0.44792,-0.34895 -0.92708,-0.53646 -0.47396,-0.1875 -0.92709,-0.1875 -0.83334,0 -1.31771,0.56251 -0.47917,0.55729 -0.47917,1.64063 0,1.05208 0.46875,1.61979 0.47396,0.5625 1.32813,0.5625 0.29688,0 0.60417,-0.0781 0.30729,-0.0781 0.55208,-0.20313 0.21355,-0.10937 0.40105,-0.22916 0.1875,-0.125 0.29687,-0.21355 h 0.0521 z"
     id="path2273" /><path
     d="m 138.88902,187.14151 h -4.28647 q 0,0.53646 0.16146,0.9375 0.16146,0.39583 0.44271,0.65104 0.27083,0.25 0.64063,0.375 0.375,0.125 0.82292,0.125 0.59375,0 1.19271,-0.23437 0.60417,-0.23959 0.85938,-0.46875 h 0.0521 v 1.06771 q -0.49479,0.20833 -1.01042,0.34896 -0.51563,0.14062 -1.08334,0.14062 -1.44792,0 -2.26042,-0.78125 -0.8125,-0.78646 -0.8125,-2.22917 0,-1.42709 0.77604,-2.26563 0.78125,-0.83855 2.05209,-0.83855 1.17709,0 1.81251,0.6875 0.64062,0.68751 0.64062,1.95313 z m -0.95312,-0.75001 q -0.005,-0.77083 -0.39063,-1.19271 -0.38021,-0.42187 -1.16146,-0.42187 -0.78646,0 -1.25522,0.46354 -0.46354,0.46354 -0.52604,1.15104 z"
     id="path2275" /><path
     d="m 144.00362,185.19879 h -0.0521 q -0.21875,-0.0521 -0.42708,-0.0729 -0.20313,-0.026 -0.48438,-0.026 -0.45313,0 -0.875,0.20313 -0.42188,0.19792 -0.81251,0.51563 v 4.13022 h -0.97917 v -5.81773 h 0.97917 v 0.85938 q 0.58334,-0.46875 1.02605,-0.66146 0.44792,-0.19792 0.91146,-0.19792 0.25521,0 0.36979,0.0156 0.11459,0.0104 0.34375,0.0469 z"
     id="path2277" /><path
     d="m 147.94635,189.89672 q -0.27605,0.0729 -0.60417,0.1198 -0.32292,0.0469 -0.57813,0.0469 -0.89063,0 -1.35417,-0.47917 -0.46354,-0.47917 -0.46354,-1.53646 V 184.954 h -0.66146 v -0.82292 h 0.66146 v -1.67188 h 0.97917 v 1.67188 h 2.02084 v 0.82292 h -2.02084 v 2.65105 q 0,0.45833 0.0208,0.71875 0.0208,0.25521 0.14583,0.47917 0.11459,0.20833 0.31251,0.30729 0.20312,0.0937 0.61458,0.0937 0.23959,0 0.5,-0.0677 0.26042,-0.0729 0.375,-0.11979 h 0.0521 z"
     id="path2279" /><path
     d="m 150.18072,183.15712 h -1.10417 v -1.01563 h 1.10417 z m -0.0625,6.79169 h -0.97917 v -5.81773 h 0.97917 z"
     id="path2281" /><path
     d="m 155.18595,182.79253 h -0.0521 q -0.16146,-0.0469 -0.42188,-0.0937 -0.26042,-0.0521 -0.45834,-0.0521 -0.63021,0 -0.91667,0.28125 -0.28125,0.27604 -0.28125,1.00521 v 0.19792 h 1.76563 v 0.82292 h -1.73438 v 4.99481 h -0.97917 V 184.954 h -0.66146 v -0.82292 h 0.66146 v -0.19271 q 0,-1.03646 0.51563,-1.58855 0.51563,-0.55729 1.48959,-0.55729 0.32812,0 0.58854,0.0312 0.26563,0.0312 0.48438,0.0729 z"
     id="path2283" /><path
     d="m 156.85783,183.15712 h -1.10417 v -1.01563 h 1.10417 z m -0.0625,6.79169 h -0.97917 v -5.81773 h 0.97917 z"
     id="path2285" /><path
     d="m 163.03494,189.58422 q -0.48959,0.23438 -0.9323,0.36459 -0.4375,0.13021 -0.93229,0.13021 -0.63021,0 -1.15626,-0.1823 -0.52604,-0.1875 -0.90104,-0.5625 -0.38021,-0.375 -0.58854,-0.94792 -0.20834,-0.57292 -0.20834,-1.33854 0,-1.42709 0.78125,-2.23959 0.78646,-0.81251 2.07293,-0.81251 0.5,0 0.97917,0.14063 0.48437,0.14062 0.88542,0.34375 v 1.08854 h -0.0521 q -0.44792,-0.34895 -0.92708,-0.53646 -0.47396,-0.1875 -0.92709,-0.1875 -0.83334,0 -1.31771,0.56251 -0.47917,0.55729 -0.47917,1.64063 0,1.05208 0.46875,1.61979 0.47396,0.5625 1.32813,0.5625 0.29688,0 0.60417,-0.0781 0.30729,-0.0781 0.55208,-0.20313 0.21355,-0.10937 0.40105,-0.22916 0.1875,-0.125 0.29687,-0.21355 h 0.0521 z"
     id="path2287" /><path
     d="m 168.81099,189.94881 h -0.97396 v -0.6198 q -0.13021,0.0885 -0.35417,0.25 -0.21875,0.15625 -0.42708,0.25 -0.24479,0.1198 -0.5625,0.19792 -0.31771,0.0833 -0.7448,0.0833 -0.78646,0 -1.33334,-0.52084 -0.54687,-0.52083 -0.54687,-1.32813 0,-0.66146 0.28125,-1.06771 0.28646,-0.41146 0.8125,-0.64584 0.53125,-0.23437 1.27605,-0.3177 0.74479,-0.0833 1.59896,-0.12501 V 185.954 q 0,-0.33333 -0.11979,-0.55208 -0.11459,-0.21875 -0.33334,-0.34375 -0.20833,-0.1198 -0.5,-0.16146 -0.29167,-0.0417 -0.60937,-0.0417 -0.38542,0 -0.85938,0.10417 -0.47396,0.099 -0.97917,0.29167 h -0.0521 v -0.9948 q 0.28646,-0.0781 0.82813,-0.17188 0.54167,-0.0937 1.06771,-0.0937 0.61459,0 1.06772,0.10417 0.45833,0.099 0.79166,0.34375 0.32813,0.23959 0.50001,0.6198 0.17187,0.38021 0.17187,0.94271 z m -0.97396,-1.4323 v -1.6198 q -0.44792,0.026 -1.05729,0.0781 -0.60417,0.0521 -0.95834,0.15104 -0.42188,0.11979 -0.6823,0.375 -0.26041,0.25 -0.26041,0.69271 0,0.5 0.30208,0.75521 0.30209,0.25 0.92188,0.25 0.51563,0 0.94271,-0.19791 0.42709,-0.20313 0.79167,-0.48438 z"
     id="path2289" /><path
     d="m 175.41518,189.94881 h -0.97917 v -0.60938 q -0.42187,0.36458 -0.88021,0.56771 -0.45833,0.20313 -0.99479,0.20313 -1.04167,0 -1.65626,-0.80209 -0.60938,-0.80209 -0.60938,-2.22397 0,-0.73958 0.20834,-1.31771 0.21354,-0.57812 0.57292,-0.98438 0.35416,-0.39583 0.82292,-0.60416 0.47396,-0.20834 0.97917,-0.20834 0.45833,0 0.8125,0.099 0.35417,0.0937 0.74479,0.29688 v -2.52085 h 0.97917 z m -0.97917,-1.4323 v -3.33855 q -0.39583,-0.17709 -0.70833,-0.24479 -0.3125,-0.0677 -0.6823,-0.0677 -0.82292,0 -1.28125,0.57292 -0.45834,0.57291 -0.45834,1.625 0,1.03646 0.35417,1.57813 0.35417,0.53646 1.13542,0.53646 0.41667,0 0.84375,-0.18229 0.42709,-0.1875 0.79688,-0.47917 z"
     id="path2291" /><path
     d="m 182.30062,187.04255 q 0,1.42188 -0.72917,2.2448 -0.72917,0.82292 -1.95313,0.82292 -1.23438,0 -1.96355,-0.82292 -0.72396,-0.82292 -0.72396,-2.2448 0,-1.42188 0.72396,-2.2448 0.72917,-0.82813 1.96355,-0.82813 1.22396,0 1.95313,0.82813 0.72917,0.82292 0.72917,2.2448 z m -1.01042,0 q 0,-1.13021 -0.44271,-1.67709 -0.44271,-0.55209 -1.22917,-0.55209 -0.79688,0 -1.23959,0.55209 -0.4375,0.54688 -0.4375,1.67709 0,1.09375 0.44271,1.66146 0.44271,0.5625 1.23438,0.5625 0.78125,0 1.22396,-0.55729 0.44792,-0.5625 0.44792,-1.66667 z"
     id="path2293" /><path
     d="m 185.89959,185.61546 h -1.24479 v -1.48438 h 1.24479 z m 0,4.33335 h -1.24479 v -1.48438 h 1.24479 z"
     id="path2295" /></g>
   <text
   id="text2255"
   style="font-size:10.6667px;fill:#000000"
   x="190.38361"
   y="189.94881"><tspan
     sodipodi:role="line"
     x="190.38361"
     y="189.94881"
     style="font-size:10.6667px;fill:#000000"
     id="tspan2253">{{ certificado.id_certificado}}</tspan></text></g></svg>
