<?xml version="1.0" encoding="utf-8"?>
<!-- Generator: Adobe Illustrator 25.0.0, SVG Export Plug-In . SVG Version: 6.00 Build 0)  -->
<svg version="1.1" id="Capa_1" xmlns="http://www.w3.org/2000/svg" xmlns:xlink="http://www.w3.org/1999/xlink" x="0px" y="0px"
	 viewBox="0 0 211.13 60" style="enable-background:new 0 0 211.13 60;" xml:space="preserve">
<style type="text/css">
	.st0{fill:#FFFFFF;}
	.st1{fill:#0066FF;}
</style>
<g>
	<path class="st0" d="M210.73,53.57l-21.4-45.32c-0.07-0.14-0.14-0.27-0.22-0.4l-1.93-4.08c-0.15-0.32-0.32-0.63-0.51-0.91
		c-0.02-0.04-0.03-0.08-0.05-0.12c-0.62-1.2-1.65-1.81-2.52-2.12c-0.84-0.4-1.69-0.61-2.55-0.61h-152c-0.86,0-1.71,0.21-2.55,0.61
		c-0.86,0.32-1.9,0.92-2.52,2.12c-0.02,0.04-0.04,0.08-0.05,0.12c-0.19,0.28-0.36,0.59-0.51,0.91l-1.93,4.08
		c-0.08,0.13-0.16,0.26-0.22,0.4L0.39,53.57C0.12,54.16-0.01,54.79,0,55.41c0,0.64,0.15,1.27,0.46,1.85
		c1.02,1.96,3.12,2.33,3.81,2.45C5.33,59.9,6.54,60,7.86,60c0.2,0,0.39-0.01,0.59-0.01C8.5,59.99,8.56,60,8.61,60h49.32h95.26h49.32
		c0.06,0,0.11-0.01,0.17-0.01c0.2,0,0.39,0.01,0.59,0.01c1.32,0,2.53-0.1,3.59-0.28c0.69-0.12,2.79-0.49,3.81-2.45
		c0.3-0.58,0.45-1.22,0.46-1.85C211.14,54.79,211.01,54.16,210.73,53.57z"/>
	<g>
		<path d="M59.67,5.4c-0.05,0.1-0.37,0.79-0.97,2.06c-0.6,1.27-1.4,2.96-2.39,5.05c-0.99,2.1-2.12,4.49-3.39,7.19
			c-1.27,2.69-2.59,5.49-3.96,8.39c-1.37,2.9-2.73,5.79-4.1,8.68c-1.37,2.9-2.63,5.57-3.78,8.01c-1.15,2.45-2.17,4.6-3.06,6.48
			c-0.88,1.87-1.51,3.21-1.89,4.01c-0.14,0.3-0.71,0.52-1.7,0.67c-1,0.15-2.03,0.22-3.1,0.22c-1.07,0-2.04-0.07-2.89-0.22
			c-0.85-0.15-1.21-0.37-1.07-0.67c0.28-0.6,0.71-1.5,1.27-2.7c0.57-1.2,1.23-2.61,2-4.23c0.77-1.62,1.6-3.41,2.49-5.35
			c0.89-1.95,1.84-3.97,2.82-6.06c-0.9,0-2,0-3.29,0c-1.3,0-2.63-0.01-3.99-0.04c-1.36-0.02-2.69-0.04-3.99-0.04
			c-1.3,0-2.42,0-3.37,0c-1.91,4.04-3.63,7.7-5.18,10.97c-1.54,3.27-2.69,5.75-3.44,7.45c-0.14,0.3-0.71,0.52-1.7,0.67
			c-0.99,0.15-2.04,0.22-3.14,0.22c-1.1,0-2.07-0.07-2.93-0.22c-0.85-0.15-1.21-0.37-1.07-0.67L27.4,5.4
			c0.26-0.55,0.6-0.95,1.01-1.2c0.42-0.25,0.8-0.37,1.15-0.37h29.72c0.55,0,0.8,0.16,0.74,0.49C59.98,4.64,59.86,5,59.67,5.4z
			 M40.23,27.86c1.27-2.7,2.53-5.33,3.77-7.9c1.24-2.57,2.38-4.95,3.41-7.15H32.66l-7.1,15.05H40.23z"/>
		<path d="M72.87,54.52c-0.52,1.1-1.23,1.65-2.12,1.65H40.2c-0.3,0-0.29-0.46,0.02-1.38c0.31-0.92,0.73-1.93,1.24-3.03
			c0.52-1.1,1.08-2.11,1.69-3.03c0.61-0.92,1.07-1.38,1.37-1.38h22.91l4.91-10.41H50.11c-0.5,0-0.81-0.1-0.94-0.3
			c-0.13-0.2-0.05-0.6,0.23-1.2L63.56,5.4c0.24-0.5,0.55-0.91,0.96-1.24c0.4-0.32,0.83-0.49,1.28-0.49h30.1
			c0.3,0,0.31,0.47,0.04,1.42c-0.27,0.95-0.68,2-1.22,3.14c-0.54,1.15-1.1,2.2-1.67,3.14c-0.57,0.95-1.01,1.42-1.31,1.42H68.82
			l-7.14,15.12h22.39c0.4,0,0.65,0.15,0.76,0.45c0.11,0.3,0.07,0.65-0.12,1.05L72.87,54.52z"/>
		<path d="M109.56,54.52c-0.52,1.1-1.23,1.65-2.12,1.65H76.89c-0.3,0-0.29-0.46,0.02-1.38c0.31-0.92,0.73-1.93,1.24-3.03
			c0.52-1.1,1.08-2.11,1.69-3.03c0.61-0.92,1.07-1.38,1.37-1.38h22.91l4.91-10.41H86.79c-0.5,0-0.81-0.1-0.94-0.3
			c-0.13-0.2-0.05-0.6,0.23-1.2L100.25,5.4c0.24-0.5,0.55-0.91,0.96-1.24c0.4-0.32,0.83-0.49,1.28-0.49h30.1
			c0.3,0,0.31,0.47,0.04,1.42c-0.27,0.95-0.68,2-1.22,3.14c-0.54,1.15-1.1,2.2-1.67,3.14c-0.57,0.95-1.01,1.42-1.31,1.42h-22.91
			l-7.14,15.12h22.39c0.4,0,0.65,0.15,0.76,0.45c0.11,0.3,0.07,0.65-0.12,1.05L109.56,54.52z"/>
		<path d="M169.43,5.4c-0.05,0.1-0.37,0.79-0.97,2.06c-0.6,1.27-1.4,2.96-2.39,5.05c-0.99,2.1-2.12,4.49-3.39,7.19
			c-1.27,2.69-2.59,5.49-3.96,8.39c-1.37,2.9-2.73,5.79-4.1,8.68c-1.37,2.9-2.63,5.57-3.78,8.01c-1.15,2.45-2.17,4.6-3.06,6.48
			c-0.88,1.87-1.51,3.21-1.89,4.01c-0.14,0.3-0.71,0.52-1.7,0.67c-1,0.15-2.03,0.22-3.1,0.22c-1.07,0-2.04-0.07-2.89-0.22
			c-0.85-0.15-1.21-0.37-1.07-0.67c0.28-0.6,0.71-1.5,1.27-2.7c0.57-1.2,1.23-2.61,2-4.23c0.77-1.62,1.6-3.41,2.49-5.35
			c0.89-1.95,1.84-3.97,2.83-6.06c-0.9,0-2,0-3.29,0c-1.3,0-2.63-0.01-3.99-0.04c-1.36-0.02-2.69-0.04-3.99-0.04
			c-1.3,0-2.42,0-3.37,0c-1.91,4.04-3.63,7.7-5.18,10.97c-1.54,3.27-2.69,5.75-3.44,7.45c-0.14,0.3-0.71,0.52-1.7,0.67
			c-0.99,0.15-2.04,0.22-3.14,0.22c-1.1,0-2.07-0.07-2.93-0.22c-0.85-0.15-1.21-0.37-1.07-0.67L137.16,5.4
			c0.26-0.55,0.6-0.95,1.01-1.2c0.42-0.25,0.8-0.37,1.15-0.37h29.72c0.55,0,0.8,0.16,0.74,0.49C169.74,4.64,169.62,5,169.43,5.4z
			 M149.99,27.86c1.27-2.7,2.53-5.33,3.77-7.9c1.24-2.57,2.38-4.95,3.41-7.15h-14.75l-7.1,15.05H149.99z"/>
		<path d="M183.22,4.73c-0.87,1.85-1.99,4.19-3.36,7.04c-1.37,2.85-2.82,5.9-4.37,9.17c-1.54,3.27-3.13,6.64-4.77,10.11
			c-1.64,3.47-3.2,6.78-4.68,9.92c-1.48,3.14-2.81,5.98-3.97,8.5c-1.17,2.52-2.07,4.45-2.7,5.8c-0.14,0.3-0.71,0.52-1.7,0.67
			c-0.99,0.15-2.04,0.22-3.14,0.22c-1.1,0-2.07-0.07-2.93-0.22c-0.85-0.15-1.21-0.37-1.07-0.67l23.85-50.54
			c0.14-0.3,0.71-0.52,1.7-0.67c0.99-0.15,2.04-0.22,3.14-0.22c1.1,0,2.07,0.07,2.93,0.22C183.01,4.21,183.36,4.43,183.22,4.73z"/>
		<path id="path2140-7-3-6_4_" class="st1" d="M185.87,9.88l-21.39,45.33c-0.13,0.27,0.18,0.47,0.92,0.6
			c0.79,0.13,1.67,0.2,2.66,0.2h35.62c0.98,0,1.87-0.07,2.66-0.2c0.74-0.13,1.05-0.34,0.92-0.6L185.87,9.88L185.87,9.88z"/>
	</g>
</g>
</svg>
